<?xml version="1.0" encoding="utf-8"?>
<!-- Generator: Adobe Illustrator 15.1.0, SVG Export Plug-In . SVG Version: 6.00 Build 0)  -->
<!DOCTYPE svg PUBLIC "-//W3C//DTD SVG 1.1//EN" "http://www.w3.org/Graphics/SVG/1.1/DTD/svg11.dtd">
<svg version="1.1" id="Layer_1" xmlns="http://www.w3.org/2000/svg" xmlns:xlink="http://www.w3.org/1999/xlink" x="0px" y="0px"
	 width="249.84px" height="450.023px" viewBox="0 0 249.84 450.023" enable-background="new 0 0 249.84 450.023"
	 xml:space="preserve">
<g>
	<g>
		<line fill="none" stroke="#000000" stroke-miterlimit="10" x1="128.42" y1="128.012" x2="128.42" y2="122.012"/>
		<g>
			<polygon points="128.42,132.428 130.696,126.856 128.42,128.179 126.144,126.856 			"/>
		</g>
	</g>
</g>
<g>
	<g>
		<line fill="none" stroke="#000000" stroke-miterlimit="10" x1="128.42" y1="49.012" x2="128.42" y2="37.012"/>
		<g>
			<polygon points="128.42,53.262 130.696,47.69 128.42,49.012 126.144,47.69 			"/>
		</g>
	</g>
</g>
<g>
	<g>
		<line fill="none" stroke="#000000" stroke-miterlimit="10" x1="85.92" y1="193.512" x2="66.92" y2="193.512"/>
		<g>
			<polygon points="90.254,193.428 84.682,191.151 86.004,193.428 84.682,195.704 			"/>
		</g>
	</g>
</g>
<g>
	<g>
		<line fill="none" stroke="#000000" stroke-miterlimit="10" x1="129.92" y1="420.512" x2="110.92" y2="420.512"/>
		<g>
			<polygon points="134.254,420.428 128.683,418.151 130.005,420.428 128.683,422.704 			"/>
		</g>
	</g>
</g>
<g>
	<g>
		<line fill="none" stroke="#000000" stroke-miterlimit="10" x1="218.42" y1="49.012" x2="218.42" y2="37.012"/>
		<g>
			<polygon points="218.42,53.262 220.696,47.69 218.42,49.012 216.144,47.69 			"/>
		</g>
	</g>
</g>
<g>
	<g>
		<polyline fill="none" stroke="#000000" stroke-miterlimit="10" points="198.755,252.812 218.42,230.262 218.42,148.012 		"/>
		<g>
			<polygon points="196.17,256.012 201.535,253.284 198.948,252.796 198.091,250.308 			"/>
		</g>
	</g>
</g>
<g>
	<g>
		<line fill="none" stroke="#000000" stroke-miterlimit="10" x1="128.42" y1="154.012" x2="128.42" y2="148.012"/>
		<g>
			<polygon points="128.42,158.428 130.696,152.856 128.42,154.179 126.144,152.856 			"/>
		</g>
	</g>
</g>
<g>
	<g>
		<line fill="none" stroke="#000000" stroke-miterlimit="10" x1="173.42" y1="381.012" x2="173.42" y2="365.012"/>
		<g>
			<polygon points="173.42,384.512 175.696,378.94 173.42,380.263 171.144,378.94 			"/>
		</g>
	</g>
</g>
<g>
	<g>
		<line fill="none" stroke="#000000" stroke-miterlimit="10" x1="174.42" y1="342.012" x2="174.42" y2="326.012"/>
		<g>
			<polygon points="174.42,345.512 176.696,339.94 174.42,341.263 172.144,339.94 			"/>
		</g>
	</g>
</g>
<g>
	<g>
		<line fill="none" stroke="#000000" stroke-miterlimit="10" x1="149.355" y1="253.002" x2="128.42" y2="228.428"/>
		<g>
			<polygon points="151.92,256.012 150.04,250.294 149.164,252.777 146.574,253.247 			"/>
		</g>
	</g>
</g>
</svg>
