<?xml version="1.0" encoding="UTF-8" standalone="no"?>
<svg
   viewBox="0 0 380 279.11075"
   width="380"
   height="279.11075"
   version="1.1"
   id="svg20"
   sodipodi:docname="compound-pendulum-diagram.svg"
   inkscape:version="1.4.2 (ebf0e940, 2025-05-08)"
   xmlns:inkscape="http://www.inkscape.org/namespaces/inkscape"
   xmlns:sodipodi="http://sodipodi.sourceforge.net/DTD/sodipodi-0.dtd"
   xmlns:xlink="http://www.w3.org/1999/xlink"
   xmlns="http://www.w3.org/2000/svg"
   xmlns:svg="http://www.w3.org/2000/svg">
  <sodipodi:namedview
     id="namedview20"
     pagecolor="#ffffff"
     bordercolor="#000000"
     borderopacity="0.25"
     inkscape:showpageshadow="2"
     inkscape:pageopacity="0.0"
     inkscape:pagecheckerboard="0"
     inkscape:deskcolor="#d1d1d1"
     showgrid="false"
     inkscape:zoom="1.6729619"
     inkscape:cx="255.53481"
     inkscape:cy="203.23236"
     inkscape:window-width="1800"
     inkscape:window-height="1097"
     inkscape:window-x="0"
     inkscape:window-y="44"
     inkscape:window-maximized="1"
     inkscape:current-layer="svg20" />
  <!-- Title -->
  <!-- Ceiling -->
  <line
     x1="0"
     y1="10"
     x2="380"
     y2="10"
     stroke="#000000"
     stroke-width="3"
     id="line1" />
  <pattern
     id="ceiling2"
     x="0"
     y="0"
     width="10"
     height="10"
     patternUnits="userSpaceOnUse">
    <line
       x1="0"
       y1="10"
       x2="10"
       y2="0"
       stroke="black"
       stroke-width="1"
       id="line2" />
  </pattern>
  <rect
     x="0"
     y="0"
     width="380"
     height="10"
     fill="url(#ceiling2)"
     id="rect2"
     style="fill:url(#pattern31)" />
  <!-- Pivot point -->
  <circle
     cx="150"
     cy="10"
     r="4"
     fill="#000000"
     id="circle2" />
  <path
     d="m 111.69215,30.51417 -0.3099,0.145833 q -1.08463,-2.069014 -1.55859,-3.654954 -0.36459,-1.239586 -0.36459,-2.497401 0,-2.934901 1.35808,-5.259124 1.66797,-2.843755 5.40496,-5.541676 l 0.21875,0.319011 q -1.6862,1.2487 -2.75261,2.798182 -1.33073,1.932295 -2.17839,4.666675 -0.84766,2.73438 -0.84766,4.976571 0,1.713545 1.02995,4.046883 z m 9.16017,-16.460968 q 1.16667,0 1.95964,0.975263 0.80209,0.975262 0.80209,3.080734 0,1.804691 -0.59245,3.682299 -0.59245,1.877607 -1.66797,3.253912 -0.85678,1.084637 -1.79558,1.567711 -0.54688,0.273438 -1.26693,0.273438 -1.1849,0 -1.98698,-0.975262 -0.79297,-0.975262 -0.79297,-3.08985 0,-2.087243 0.80208,-4.192715 0.93881,-2.460942 2.39714,-3.736986 0.95703,-0.838544 2.14193,-0.838544 z m 0.009,0.47396 q -0.52865,0 -1.07553,0.419271 -0.53776,0.410157 -1.12109,1.72266 -0.57422,1.312502 -1.10287,3.381516 -0.68359,2.707036 -0.68359,4.611988 0,0.947918 0.41015,1.421877 0.41016,0.464845 0.9935,0.464845 0.55599,0 0.94791,-0.364584 1.04818,-0.984377 1.79558,-3.363288 1.21224,-3.891934 1.21224,-6.325532 0,-1.01172 -0.41016,-1.48568 -0.41015,-0.483073 -0.96614,-0.483073 z m 2.67969,14.191431 q 0.68359,-0.309896 1.11198,-0.783855 0.32813,-0.364584 0.32813,-0.701824 0,-0.164063 -0.0547,-0.300782 -0.0365,-0.07292 -0.25521,-0.291667 -0.21875,-0.218751 -0.24609,-0.300782 -0.0638,-0.154948 -0.0638,-0.355469 0,-0.391928 0.26433,-0.674481 0.27344,-0.282552 0.63802,-0.282552 0.3737,0 0.65625,0.300781 0.29167,0.300782 0.29167,0.756512 0,0.8112 -0.63802,1.640628 -0.63803,0.829429 -1.85027,1.285159 z m 15.97789,-14.665391 q 1.16667,0 1.95964,0.975263 0.80209,0.975262 0.80209,3.080734 0,1.804691 -0.59245,3.682299 -0.59245,1.877607 -1.66797,3.253912 -0.85678,1.084637 -1.79558,1.567711 -0.54688,0.273438 -1.26693,0.273438 -1.1849,0 -1.98698,-0.975262 -0.79297,-0.975262 -0.79297,-3.08985 0,-2.087243 0.80208,-4.192715 0.93881,-2.460942 2.39714,-3.736986 0.95704,-0.838544 2.14193,-0.838544 z m 0.009,0.47396 q -0.52865,0 -1.07552,0.419271 -0.53777,0.410157 -1.1211,1.72266 -0.57422,1.312502 -1.10287,3.381516 -0.68359,2.707036 -0.68359,4.611988 0,0.947918 0.41016,1.421877 0.41015,0.464845 0.99349,0.464845 0.55599,0 0.94792,-0.364584 1.04817,-0.984377 1.79557,-3.363288 1.21224,-3.891934 1.21224,-6.325532 0,-1.01172 -0.41015,-1.48568 -0.41016,-0.483073 -0.96615,-0.483073 z m 5.58725,-0.647137 0.3099,-0.173177 q 1.08463,2.059899 1.54948,3.64584 0.3737,1.239585 0.3737,2.4974 0,2.944016 -1.35808,5.259124 -1.67709,2.85287 -5.40496,5.550791 l -0.21875,-0.282552 q 1.6862,-1.257815 2.75261,-2.798182 1.33073,-1.932296 2.17839,-4.666676 0.84766,-2.743494 0.84766,-4.985686 0,-1.713544 -1.02995,-4.046882 z"
     id="text2"
     style="font-style:italic;font-size:18.6667px;font-family:serif"
     aria-label="(0, 0)" />
  <!-- First arm angle = 25 degrees, second arm angle = 45 degrees for illustration -->
  <!-- First pendulum arm (thick rod with distributed mass) -->
  <defs
     id="defs7">
    <pattern
       inkscape:collect="always"
       xlink:href="#ceiling2"
       id="pattern31"
       patternTransform="translate(-50,-50)" />
    <linearGradient
       id="rod1"
       x1="277.01685"
       y1="37.817194"
       x2="386.96684"
       y2="37.817194"
       gradientTransform="scale(0.7003184,1.4279219)"
       gradientUnits="userSpaceOnUse">
      <stop
         offset="0%"
         style="stop-color:#c0392b;stop-opacity:0.9"
         id="stop2" />
      <stop
         offset="50%"
         style="stop-color:#e74c3c;stop-opacity:0.9"
         id="stop3" />
      <stop
         offset="100%"
         style="stop-color:#c0392b;stop-opacity:0.9"
         id="stop4" />
    </linearGradient>
    <linearGradient
       id="rod2"
       x1="248.59411"
       y1="207.32993"
       x2="370.49161"
       y2="207.32993"
       gradientTransform="scale(1.041859,0.95982282)"
       gradientUnits="userSpaceOnUse">
      <stop
         offset="0%"
         style="stop-color:#c0392b;stop-opacity:0.9"
         id="stop5" />
      <stop
         offset="50%"
         style="stop-color:#e74c3c;stop-opacity:0.9"
         id="stop6" />
      <stop
         offset="100%"
         style="stop-color:#c0392b;stop-opacity:0.9"
         id="stop7" />
    </linearGradient>
    <marker
       id="arrowhead2-4"
       markerWidth="10"
       markerHeight="10"
       refX="9"
       refY="3"
       orient="auto">
      <polygon
         points="0,6 0,0 10,3 "
         fill="#000000"
         id="polygon15-8" />
    </marker>
  </defs>
  <!-- Rod 1 (wider to show distributed mass) -->
  <line
     x1="150"
     y1="10"
     x2="215"
     y2="155"
     stroke="url(#rod1)"
     stroke-width="12"
     stroke-linecap="round"
     id="line7"
     style="stroke:url(#rod1)" />
  <circle
     cx="150"
     cy="10"
     r="4"
     fill="#555555"
     id="circle7" />
  <!-- Center of mass 1 -->
  <circle
     cx="182.5"
     cy="82.5"
     r="4"
     fill="#000000"
     id="circle8" />
  <g
     id="text8"
     style="font-style:italic;font-size:18.6667px;font-family:serif"
     aria-label="(xc₁, yc₁)">
    <path
       d="m 193.57933,84.011919 -0.3099,0.145834 q -1.08464,-2.069015 -1.5586,-3.654955 -0.36458,-1.239586 -0.36458,-2.4974 0,-2.934901 1.35808,-5.259124 1.66797,-2.843755 5.40495,-5.541677 l 0.21875,0.319011 q -1.6862,1.2487 -2.75261,2.798182 -1.33073,1.932295 -2.17839,4.666675 -0.84765,2.73438 -0.84765,4.976572 0,1.713544 1.02995,4.046882 z m 5.94272,-12.095074 q 0.44661,0.473959 0.67448,0.947918 0.16406,0.328126 0.53776,1.72266 l 0.80208,-1.203127 q 0.31901,-0.437501 0.77474,-0.829429 0.45573,-0.401042 0.80209,-0.546876 0.21875,-0.09115 0.48307,-0.09115 0.39193,0 0.61979,0.209636 0.23698,0.209636 0.23698,0.510417 0,0.346355 -0.13671,0.47396 -0.25521,0.227865 -0.58334,0.227865 -0.19141,0 -0.41016,-0.08203 -0.42838,-0.145833 -0.57422,-0.145833 -0.21875,0 -0.51953,0.255208 -0.5651,0.47396 -1.34896,1.832035 l 0.7474,3.135422 q 0.17318,0.720054 0.29167,0.865887 0.11849,0.136719 0.23697,0.136719 0.19141,0 0.44662,-0.209636 0.5013,-0.419271 0.85677,-1.093751 l 0.31901,0.164062 q -0.57422,1.075523 -1.45833,1.786462 -0.50131,0.401042 -0.84766,0.401042 -0.51042,0 -0.8112,-0.57422 -0.19141,-0.355469 -0.79297,-3.062505 -1.42188,2.470056 -2.27865,3.180995 -0.55599,0.45573 -1.07552,0.45573 -0.36459,0 -0.66537,-0.264323 -0.21875,-0.200521 -0.21875,-0.537762 0,-0.300781 0.20052,-0.501303 0.20052,-0.200521 0.49219,-0.200521 0.29167,0 0.61979,0.291667 0.23698,0.209636 0.36459,0.209636 0.10937,0 0.28255,-0.145833 0.42839,-0.346355 1.16667,-1.494795 0.73828,-1.148439 0.96615,-1.658857 -0.56511,-2.214848 -0.61068,-2.342452 -0.20964,-0.592449 -0.54688,-0.838543 -0.33724,-0.246094 -0.99349,-0.246094 -0.20963,0 -0.48307,0.01823 v -0.328126 z"
       id="path35" />
    <path
       style="font-size:65%;baseline-shift:sub"
       d="m 209.25781,82.607359 q -0.61615,0.740561 -1.24415,1.090106 -0.62799,0.343621 -1.32708,0.343621 -0.84128,0 -1.31524,-0.47396 -0.46803,-0.473959 -0.46803,-1.273765 0,-0.906447 0.50358,-1.783271 0.5095,-0.876825 1.36263,-1.421878 0.85905,-0.550977 1.68255,-0.550977 0.64577,0 0.9657,0.272526 0.31992,0.266602 0.31992,0.657619 0,0.367318 -0.22513,0.627995 -0.16589,0.201433 -0.40879,0.201433 -0.18366,0 -0.30807,-0.11849 -0.11849,-0.11849 -0.11849,-0.296224 0,-0.112566 0.0415,-0.207357 0.0474,-0.09479 0.18366,-0.225131 0.14218,-0.136263 0.17181,-0.195508 0.0296,-0.05925 0.0296,-0.124414 0,-0.124415 -0.11257,-0.207358 -0.17181,-0.118489 -0.4858,-0.118489 -0.5806,0 -1.14936,0.408789 -0.56875,0.40879 -0.97161,1.1612 -0.48581,0.912372 -0.48581,1.824743 0,0.604298 0.34362,0.959768 0.34362,0.349545 0.93607,0.349545 0.45619,0 0.90052,-0.225131 0.45026,-0.231055 1.00717,-0.829429 z m 4.89955,-4.378198 q -0.0948,0.337696 -0.20143,0.734637 -0.10072,0.391016 -0.16589,0.669467 l -0.77018,3.341412 q -0.006,0.0237 -0.0118,0.05332 0,0.02962 0,0.05332 0,0.106641 0.0356,0.177735 0.0355,0.06517 0.13626,0.11849 0.10071,0.0474 0.36139,0.08294 0.26068,0.03555 0.44434,0.03555 l -0.0948,0.391016 h -3.22885 l 0.0948,-0.391016 q 0.17774,-0.0059 0.47396,-0.0237 0.29623,-0.0237 0.42064,-0.06517 0.13626,-0.0474 0.22513,-0.130339 0.0948,-0.08887 0.13034,-0.254753 l 0.8709,-3.767975 h -1.16713 l 0.10072,-0.432488 h 0.30807 q 0.47396,0 0.88275,-0.159961 0.41472,-0.165886 0.72279,-0.432488 z"
       id="path36" />
    <path
       d="m 215.83217,82.216343 q 0.68359,-0.309897 1.11198,-0.783856 0.32812,-0.364584 0.32812,-0.701824 0,-0.164063 -0.0547,-0.300782 -0.0365,-0.07292 -0.25521,-0.291667 -0.21875,-0.21875 -0.2461,-0.300782 -0.0638,-0.154948 -0.0638,-0.355469 0,-0.391928 0.26432,-0.674481 0.27344,-0.282552 0.63803,-0.282552 0.37369,0 0.65625,0.300782 0.29166,0.300781 0.29166,0.756511 0,0.8112 -0.63802,1.640628 -0.63802,0.829429 -1.85026,1.285159 z M 228.3374,71.916845 q 0.30989,0.528647 0.42838,0.993491 0.11849,0.45573 0.23698,1.804691 l 0.40104,4.484383 q 0.54688,-0.656251 1.58594,-2.078128 0.50131,-0.69271 1.23959,-1.886723 0.44662,-0.729168 0.54688,-1.020835 0.0547,-0.145833 0.0547,-0.300782 0,-0.10026 -0.0638,-0.164062 -0.0638,-0.0638 -0.33724,-0.145834 -0.26432,-0.09115 -0.44661,-0.319011 -0.17318,-0.23698 -0.17318,-0.537761 0,-0.373699 0.21875,-0.601564 0.21875,-0.227865 0.54688,-0.227865 0.40104,0 0.68359,0.33724 0.28255,0.328126 0.28255,0.91146 0,0.720054 -0.49219,1.649743 -0.49218,0.920574 -1.89583,2.83464 -1.40365,1.914066 -3.39975,4.174487 -1.3763,1.558597 -2.04167,1.959639 -0.66536,0.410157 -1.13932,0.410157 -0.28256,0 -0.49219,-0.21875 -0.21875,-0.209636 -0.21875,-0.492189 0,-0.355469 0.30078,-0.647136 0.29167,-0.291668 0.63802,-0.291668 0.18229,0 0.30078,0.08203 0.0729,0.04557 0.16407,0.255209 0.082,0.21875 0.15494,0.291667 0.0456,0.04557 0.10938,0.04557 0.0547,0 0.19141,-0.09115 0.5013,-0.309897 1.16666,-0.984377 0.87501,-0.893231 1.29428,-1.458336 l -0.51042,-5.778656 q -0.1276,-1.430992 -0.38281,-1.740889 -0.25521,-0.309896 -0.85678,-0.309896 -0.1914,0 -0.68359,0.05469 l -0.082,-0.33724 z"
       id="path37" />
    <path
       style="font-size:65%;baseline-shift:sub"
       d="m 238.32837,82.607359 q -0.61615,0.740561 -1.24415,1.090106 -0.62799,0.343621 -1.32708,0.343621 -0.84128,0 -1.31524,-0.47396 -0.46803,-0.473959 -0.46803,-1.273765 0,-0.906447 0.50358,-1.783271 0.5095,-0.876825 1.36263,-1.421878 0.85905,-0.550977 1.68255,-0.550977 0.64577,0 0.9657,0.272526 0.31992,0.266602 0.31992,0.657619 0,0.367318 -0.22513,0.627995 -0.16589,0.201433 -0.40879,0.201433 -0.18366,0 -0.30808,-0.11849 -0.11848,-0.11849 -0.11848,-0.296224 0,-0.112566 0.0415,-0.207357 0.0474,-0.09479 0.18366,-0.225131 0.14218,-0.136263 0.17181,-0.195508 0.0296,-0.05925 0.0296,-0.124414 0,-0.124415 -0.11257,-0.207358 -0.17181,-0.118489 -0.48581,-0.118489 -0.5806,0 -1.14935,0.408789 -0.56875,0.40879 -0.97161,1.1612 -0.48581,0.912372 -0.48581,1.824743 0,0.604298 0.34362,0.959768 0.34362,0.349545 0.93607,0.349545 0.45618,0 0.90052,-0.225131 0.45026,-0.231055 1.00716,-0.829429 z m 4.89955,-4.378198 q -0.0948,0.337696 -0.20143,0.734637 -0.10072,0.391016 -0.16589,0.669467 l -0.77018,3.341412 q -0.006,0.0237 -0.0118,0.05332 0,0.02962 0,0.05332 0,0.106641 0.0355,0.177735 0.0356,0.06517 0.13627,0.11849 0.10071,0.0474 0.36139,0.08294 0.26068,0.03555 0.44434,0.03555 l -0.0948,0.391016 h -3.22885 l 0.0948,-0.391016 q 0.17774,-0.0059 0.47396,-0.0237 0.29622,-0.0237 0.42064,-0.06517 0.13626,-0.0474 0.22513,-0.130339 0.0948,-0.08887 0.13034,-0.254753 l 0.8709,-3.767975 h -1.16713 l 0.10072,-0.432488 h 0.30807 q 0.47396,0 0.88275,-0.159961 0.41472,-0.165886 0.72279,-0.432488 z"
       id="path38" />
    <path
       d="m 247.81028,67.377774 0.3099,-0.173177 q 1.08464,2.0599 1.54948,3.64584 0.3737,1.239585 0.3737,2.4974 0,2.944016 -1.35808,5.259124 -1.67708,2.85287 -5.40495,5.550792 L 243.06158,83.8752 q 1.6862,-1.257815 2.7526,-2.798182 1.33074,-1.932295 2.17839,-4.666675 0.84766,-2.743495 0.84766,-4.985686 0,-1.713545 -1.02995,-4.046883 z"
       id="path39" />
  </g>
  <g
     id="text9"
     style="font-style:italic;font-size:18.6667px;font-family:serif"
     aria-label="m₁">
    <path
       d="m 212.3899,106.47709 -1.1849,4.11069 q 0.79297,-1.44922 1.34896,-2.17839 0.86589,-1.13021 1.6862,-1.64063 0.48308,-0.29167 1.01172,-0.29167 0.45573,0 0.75652,0.29167 0.30078,0.29167 0.30078,0.7474 0,0.44661 -0.20964,1.16667 l -0.64713,2.31511 q 1.48568,-2.77996 2.81641,-3.90105 0.73828,-0.6198 1.45833,-0.6198 0.41927,0 0.6836,0.29167 0.27344,0.28255 0.27344,0.88412 0,0.52864 -0.16407,1.12109 l -1.0026,3.54558 q -0.32813,1.15756 -0.32813,1.28516 0,0.12761 0.082,0.21875 0.0547,0.0638 0.14584,0.0638 0.0911,0 0.31901,-0.17317 0.51953,-0.40105 0.97526,-1.0573 l 0.30078,0.19141 q -0.22786,0.36458 -0.8112,1.00261 -0.57422,0.63802 -0.98437,0.86588 -0.41016,0.22787 -0.75652,0.22787 -0.31901,0 -0.53776,-0.21875 -0.20963,-0.21875 -0.20963,-0.53776 0,-0.4375 0.37369,-1.75912 l 0.82943,-2.92579 q 0.28256,-1.01172 0.30079,-1.12109 0.0273,-0.17318 0.0273,-0.33724 0,-0.22787 -0.10026,-0.35547 -0.10938,-0.12761 -0.2461,-0.12761 -0.38281,0 -0.8112,0.39193 -1.25781,1.15755 -2.35156,3.2448 -0.72006,1.3763 -1.34896,3.52735 h -1.37631 l 1.5586,-5.51434 q 0.25521,-0.89323 0.25521,-1.19401 0,-0.24609 -0.10026,-0.36458 -0.10026,-0.11849 -0.2461,-0.11849 -0.30078,0 -0.63802,0.21875 -0.54687,0.35547 -1.41276,1.52214 -0.85677,1.16667 -1.33073,2.23307 -0.22787,0.50131 -1.08464,3.21746 h -1.34896 l 1.6862,-5.90626 0.21875,-0.76563 q 0.0638,-0.17318 0.0638,-0.25521 0,-0.20052 -0.18229,-0.35547 -0.18229,-0.16406 -0.46484,-0.16406 -0.11849,0 -0.65626,0.10937 l -0.082,-0.33724 z"
       id="path40" />
    <path
       style="font-size:65%;baseline-shift:sub"
       d="m 226.02397,112.78941 q -0.0948,0.3377 -0.20143,0.73464 -0.10071,0.39101 -0.16588,0.66946 l -0.77019,3.34142 q -0.006,0.0237 -0.0119,0.0533 0,0.0296 0,0.0533 0,0.10664 0.0356,0.17773 0.0356,0.0652 0.13626,0.11849 0.10072,0.0474 0.3614,0.0829 0.26068,0.0356 0.44433,0.0356 l -0.0948,0.39102 h -3.22884 l 0.0948,-0.39102 q 0.17773,-0.006 0.47396,-0.0237 0.29622,-0.0237 0.42064,-0.0652 0.13626,-0.0474 0.22513,-0.13033 0.0948,-0.0889 0.13033,-0.25476 l 0.8709,-3.76797 h -1.16712 l 0.10072,-0.43249 h 0.30807 q 0.47396,0 0.88275,-0.15996 0.41471,-0.16589 0.72279,-0.43249 z"
       id="path41" />
  </g>
  <!-- Rod 2 (wider to show distributed mass) -->
  <line
     x1="215"
     y1="155"
     x2="330"
     y2="260"
     stroke="url(#rod2)"
     stroke-width="12"
     stroke-linecap="round"
     id="line9"
     style="stroke:url(#rod2)" />
  <circle
     cx="215"
     cy="155"
     r="4"
     fill="#555555"
     id="circle9" />
  <!-- Center of mass 2 -->
  <circle
     cx="272.5"
     cy="207.5"
     r="4"
     fill="#000000"
     id="circle10" />
  <g
     id="text10"
     style="font-style:italic;font-size:18.6667px;font-family:serif"
     aria-label="(xc₂, yc₂)">
    <path
       d="m 280.98065,202.51525 -0.3099,0.14583 q -1.08464,-2.06902 -1.55859,-3.65496 -0.36459,-1.23958 -0.36459,-2.4974 0,-2.9349 1.35808,-5.25912 1.66797,-2.84376 5.40495,-5.54168 l 0.21875,0.31901 q -1.6862,1.2487 -2.7526,2.79819 -1.33074,1.93229 -2.17839,4.66667 -0.84766,2.73438 -0.84766,4.97657 0,1.71355 1.02995,4.04689 z m 5.94272,-12.09508 q 0.44661,0.47396 0.67448,0.94792 0.16406,0.32813 0.53776,1.72266 l 0.80208,-1.20313 q 0.31901,-0.4375 0.77474,-0.82943 0.45573,-0.40104 0.80209,-0.54687 0.21875,-0.0911 0.48307,-0.0911 0.39193,0 0.6198,0.20964 0.23698,0.20963 0.23698,0.51041 0,0.34636 -0.13672,0.47396 -0.25521,0.22787 -0.58334,0.22787 -0.1914,0 -0.41015,-0.082 -0.42839,-0.14584 -0.57422,-0.14584 -0.21876,0 -0.51954,0.25521 -0.5651,0.47396 -1.34896,1.83204 l 0.7474,3.13542 q 0.17318,0.72005 0.29167,0.86589 0.11849,0.13672 0.23698,0.13672 0.1914,0 0.44661,-0.20964 0.5013,-0.41927 0.85677,-1.09375 l 0.31902,0.16406 q -0.57422,1.07552 -1.45834,1.78646 -0.5013,0.40104 -0.84766,0.40104 -0.51042,0 -0.8112,-0.57422 -0.1914,-0.35546 -0.79297,-3.0625 -1.42188,2.47006 -2.27865,3.18099 -0.55599,0.45573 -1.07552,0.45573 -0.36458,0 -0.66537,-0.26432 -0.21875,-0.20052 -0.21875,-0.53776 0,-0.30078 0.20052,-0.5013 0.20053,-0.20052 0.49219,-0.20052 0.29167,0 0.6198,0.29166 0.23697,0.20964 0.36458,0.20964 0.10937,0 0.28255,-0.14583 0.42839,-0.34636 1.16667,-1.4948 0.73828,-1.14844 0.96615,-1.65886 -0.56511,-2.21484 -0.61068,-2.34245 -0.20964,-0.59245 -0.54688,-0.83854 -0.33724,-0.2461 -0.99349,-0.2461 -0.20963,0 -0.48307,0.0182 v -0.32812 z"
       id="path49" />
    <path
       style="font-size:65%;baseline-shift:sub"
       d="m 296.65913,201.11069 q -0.61615,0.74056 -1.24415,1.0901 -0.62799,0.34362 -1.32708,0.34362 -0.84128,0 -1.31524,-0.47396 -0.46803,-0.47396 -0.46803,-1.27376 0,-0.90645 0.50358,-1.78327 0.5095,-0.87683 1.36263,-1.42188 0.85905,-0.55098 1.68256,-0.55098 0.64577,0 0.96569,0.27253 0.31992,0.2666 0.31992,0.65762 0,0.36731 -0.22513,0.62799 -0.16589,0.20143 -0.40879,0.20143 -0.18366,0 -0.30807,-0.11849 -0.11849,-0.11849 -0.11849,-0.29622 0,-0.11257 0.0415,-0.20736 0.0474,-0.0948 0.18366,-0.22513 0.14219,-0.13626 0.17181,-0.19551 0.0296,-0.0592 0.0296,-0.12441 0,-0.12441 -0.11257,-0.20736 -0.17181,-0.11849 -0.4858,-0.11849 -0.5806,0 -1.14935,0.40879 -0.56876,0.40879 -0.97162,1.1612 -0.48581,0.91237 -0.48581,1.82475 0,0.60429 0.34362,0.95976 0.34362,0.34955 0.93607,0.34955 0.45619,0 0.90052,-0.22513 0.45026,-0.23106 1.00717,-0.82943 z m 6.04298,-3.07481 q 0,0.47395 -0.17774,0.85905 -0.17773,0.37916 -0.45618,0.64577 -0.28438,0.27252 -0.628,0.47988 -0.34362,0.20736 -0.75833,0.39102 -0.42064,0.18365 -1.02494,0.5095 -0.6043,0.31992 -1.02494,0.64577 h 3.69688 l -0.18958,0.82351 h -4.46114 l 0.15404,-0.65762 q 0.38509,-0.47396 0.99531,-0.84721 0.61022,-0.37916 1.15528,-0.70501 0.25475,-0.15404 0.59245,-0.40879 0.34362,-0.25475 0.52727,-0.47988 0.23106,-0.27845 0.3614,-0.5806 0.13034,-0.30215 0.13034,-0.73464 0,-0.41471 -0.24291,-0.64577 -0.2429,-0.23105 -0.64577,-0.23105 -0.30214,0 -0.56875,0.11256 -0.26067,0.10664 -0.40286,0.27845 0,0.0533 0.006,0.15404 0.0118,0.0948 0.0118,0.22513 0,0.39694 -0.17773,0.59837 -0.17774,0.20144 -0.59245,0.20144 -0.23106,0 -0.33177,-0.13034 -0.10072,-0.13627 -0.10072,-0.314 0,-0.24883 0.17181,-0.50951 0.17773,-0.2666 0.49173,-0.50358 0.30215,-0.23105 0.73464,-0.37917 0.43841,-0.14811 0.94792,-0.14811 0.7998,0 1.30339,0.3614 0.50358,0.35546 0.50358,0.98939 z"
       id="path50" />
    <path
       d="m 303.23349,200.71967 q 0.68359,-0.3099 1.11198,-0.78386 0.32812,-0.36458 0.32812,-0.70182 0,-0.16406 -0.0547,-0.30078 -0.0365,-0.0729 -0.25521,-0.29167 -0.21875,-0.21875 -0.2461,-0.30078 -0.0638,-0.15495 -0.0638,-0.35547 0,-0.39193 0.26433,-0.67448 0.27343,-0.28255 0.63802,-0.28255 0.3737,0 0.65625,0.30078 0.29167,0.30078 0.29167,0.75651 0,0.8112 -0.63803,1.64063 -0.63802,0.82943 -1.85026,1.28516 z m 12.50523,-10.2995 q 0.30989,0.52865 0.42838,0.99349 0.11849,0.45573 0.23698,1.80469 l 0.40105,4.48439 q 0.54687,-0.65625 1.58594,-2.07813 0.5013,-0.69271 1.23958,-1.88672 0.44662,-0.72917 0.54688,-1.02084 0.0547,-0.14583 0.0547,-0.30078 0,-0.10026 -0.0638,-0.16406 -0.0638,-0.0638 -0.33724,-0.14584 -0.26432,-0.0911 -0.44661,-0.31901 -0.17318,-0.23698 -0.17318,-0.53776 0,-0.3737 0.21875,-0.60156 0.21875,-0.22787 0.54688,-0.22787 0.40104,0 0.68359,0.33724 0.28255,0.32813 0.28255,0.91146 0,0.72006 -0.49218,1.64974 -0.49219,0.92058 -1.89584,2.83464 -1.40365,1.91407 -3.39975,4.17449 -1.3763,1.5586 -2.04167,1.95964 -0.66536,0.41016 -1.13932,0.41016 -0.28255,0 -0.49219,-0.21875 -0.21875,-0.20964 -0.21875,-0.49219 0,-0.35547 0.30078,-0.64714 0.29167,-0.29167 0.63802,-0.29167 0.18229,0 0.30078,0.082 0.0729,0.0456 0.16407,0.25521 0.082,0.21875 0.15495,0.29166 0.0456,0.0456 0.10937,0.0456 0.0547,0 0.19141,-0.0911 0.5013,-0.3099 1.16667,-0.98438 0.875,-0.89323 1.29427,-1.45833 l -0.51042,-5.77866 q -0.1276,-1.43099 -0.38281,-1.74089 -0.25521,-0.30989 -0.85677,-0.30989 -0.19141,0 -0.6836,0.0547 l -0.082,-0.33724 z"
       id="path51" />
    <path
       style="font-size:65%;baseline-shift:sub"
       d="m 325.72969,201.11069 q -0.61615,0.74056 -1.24415,1.0901 -0.62799,0.34362 -1.32708,0.34362 -0.84128,0 -1.31524,-0.47396 -0.46803,-0.47396 -0.46803,-1.27376 0,-0.90645 0.50358,-1.78327 0.5095,-0.87683 1.36263,-1.42188 0.85905,-0.55098 1.68256,-0.55098 0.64577,0 0.96569,0.27253 0.31992,0.2666 0.31992,0.65762 0,0.36731 -0.22513,0.62799 -0.16589,0.20143 -0.40879,0.20143 -0.18366,0 -0.30807,-0.11849 -0.11849,-0.11849 -0.11849,-0.29622 0,-0.11257 0.0415,-0.20736 0.0474,-0.0948 0.18366,-0.22513 0.14218,-0.13626 0.17181,-0.19551 0.0296,-0.0592 0.0296,-0.12441 0,-0.12441 -0.11257,-0.20736 -0.17181,-0.11849 -0.4858,-0.11849 -0.5806,0 -1.14935,0.40879 -0.56876,0.40879 -0.97162,1.1612 -0.48581,0.91237 -0.48581,1.82475 0,0.60429 0.34362,0.95976 0.34362,0.34955 0.93607,0.34955 0.45619,0 0.90052,-0.22513 0.45026,-0.23106 1.00717,-0.82943 z m 6.04298,-3.07481 q 0,0.47395 -0.17774,0.85905 -0.17773,0.37916 -0.45618,0.64577 -0.28438,0.27252 -0.628,0.47988 -0.34362,0.20736 -0.75834,0.39102 -0.42063,0.18365 -1.02493,0.5095 -0.6043,0.31992 -1.02494,0.64577 h 3.69688 l -0.18958,0.82351 h -4.46114 l 0.15403,-0.65762 q 0.3851,-0.47396 0.99532,-0.84721 0.61022,-0.37916 1.15527,-0.70501 0.25476,-0.15404 0.59245,-0.40879 0.34362,-0.25475 0.52728,-0.47988 0.23106,-0.27845 0.3614,-0.5806 0.13034,-0.30215 0.13034,-0.73464 0,-0.41471 -0.24291,-0.64577 -0.2429,-0.23105 -0.64577,-0.23105 -0.30215,0 -0.56875,0.11256 -0.26068,0.10664 -0.40286,0.27845 0,0.0533 0.006,0.15404 0.0118,0.0948 0.0118,0.22513 0,0.39694 -0.17774,0.59837 -0.17773,0.20144 -0.59244,0.20144 -0.23106,0 -0.33178,-0.13034 -0.10071,-0.13627 -0.10071,-0.314 0,-0.24883 0.17181,-0.50951 0.17773,-0.2666 0.49173,-0.50358 0.30215,-0.23105 0.73464,-0.37917 0.43841,-0.14811 0.94792,-0.14811 0.7998,0 1.30338,0.3614 0.50359,0.35546 0.50359,0.98939 z"
       id="path52" />
    <path
       d="m 335.2116,185.8811 0.3099,-0.17318 q 1.08464,2.0599 1.54948,3.64584 0.3737,1.23959 0.3737,2.4974 0,2.94402 -1.35807,5.25913 -1.67709,2.85287 -5.40496,5.55079 l -0.21875,-0.28255 q 1.6862,-1.25782 2.75261,-2.79819 1.33073,-1.93229 2.17839,-4.66667 0.84765,-2.7435 0.84765,-4.98569 0,-1.71354 -1.02995,-4.04688 z"
       id="path53" />
  </g>
  <g
     id="text11"
     style="font-style:italic;font-size:18.6667px;font-family:serif"
     aria-label="m₂">
    <path
       d="m 320.26939,226.51551 -1.1849,4.11068 q 0.79297,-1.44922 1.34896,-2.17839 0.86589,-1.13021 1.6862,-1.64062 0.48307,-0.29167 1.01172,-0.29167 0.45573,0 0.75651,0.29167 0.30078,0.29166 0.30078,0.74739 0,0.44662 -0.20963,1.16667 l -0.64714,2.31511 q 1.48568,-2.77995 2.81641,-3.90105 0.73829,-0.61979 1.45834,-0.61979 0.41927,0 0.68359,0.29167 0.27344,0.28255 0.27344,0.88411 0,0.52865 -0.16406,1.1211 l -1.00261,3.54558 q -0.32812,1.15755 -0.32812,1.28516 0,0.1276 0.082,0.21875 0.0547,0.0638 0.14583,0.0638 0.0912,0 0.31901,-0.17318 0.51954,-0.40104 0.97527,-1.05729 l 0.30078,0.1914 q -0.22787,0.36459 -0.8112,1.00261 -0.57422,0.63802 -0.98438,0.86589 -0.41016,0.22786 -0.75651,0.22786 -0.31901,0 -0.53776,-0.21875 -0.20964,-0.21875 -0.20964,-0.53776 0,-0.4375 0.3737,-1.75912 l 0.82943,-2.92578 q 0.28255,-1.01173 0.30078,-1.1211 0.0273,-0.17318 0.0273,-0.33724 0,-0.22787 -0.10027,-0.35547 -0.10937,-0.1276 -0.24609,-0.1276 -0.38281,0 -0.8112,0.39192 -1.25781,1.15756 -2.35157,3.2448 -0.72005,1.37631 -1.34896,3.52735 h -1.3763 l 1.5586,-5.51433 q 0.2552,-0.89323 0.2552,-1.19401 0,-0.2461 -0.10026,-0.36459 -0.10026,-0.11849 -0.24609,-0.11849 -0.30078,0 -0.63802,0.21875 -0.54688,0.35547 -1.41277,1.52214 -0.85677,1.16667 -1.33073,2.23308 -0.22786,0.5013 -1.08463,3.21745 h -1.34897 l 1.68621,-5.90626 0.21875,-0.76563 q 0.0638,-0.17317 0.0638,-0.2552 0,-0.20053 -0.18229,-0.35547 -0.1823,-0.16407 -0.46485,-0.16407 -0.11849,0 -0.65625,0.10938 l -0.082,-0.33724 z"
       id="path54" />
    <path
       style="font-size:65%;baseline-shift:sub"
       d="m 335.04689,234.13121 q 0,0.47396 -0.17774,0.85905 -0.17773,0.37917 -0.45618,0.64577 -0.28438,0.27253 -0.628,0.47989 -0.34362,0.20735 -0.75833,0.39101 -0.42064,0.18366 -1.02494,0.50951 -0.6043,0.31992 -1.02494,0.64577 h 3.69688 l -0.18958,0.8235 h -4.46114 l 0.15404,-0.65762 q 0.38509,-0.47396 0.99531,-0.8472 0.61022,-0.37917 1.15528,-0.70501 0.25475,-0.15404 0.59245,-0.40879 0.34362,-0.25476 0.52727,-0.47989 0.23106,-0.27845 0.3614,-0.5806 0.13034,-0.30214 0.13034,-0.73463 0,-0.41472 -0.24291,-0.64577 -0.2429,-0.23106 -0.64577,-0.23106 -0.30215,0 -0.56875,0.11257 -0.26067,0.10664 -0.40286,0.27845 0,0.0533 0.006,0.15404 0.0119,0.0948 0.0119,0.22513 0,0.39694 -0.17773,0.59837 -0.17774,0.20143 -0.59245,0.20143 -0.23106,0 -0.33177,-0.13034 -0.10072,-0.13626 -0.10072,-0.31399 0,-0.24883 0.17181,-0.50951 0.17773,-0.2666 0.49173,-0.50358 0.30215,-0.23106 0.73464,-0.37917 0.43841,-0.14811 0.94792,-0.14811 0.7998,0 1.30339,0.36139 0.50358,0.35547 0.50358,0.98939 z"
       id="path55" />
  </g>
  <!-- Vertical reference line (dashed) -->
  <line
     x1="150"
     y1="10"
     x2="150"
     y2="86.731201"
     stroke="#808080"
     stroke-width="1"
     stroke-dasharray="4, 4"
     id="line11" />
  <!-- Angle theta1 arc - from vertical toward arm -->
  <path
     d="m 150,60 a 50,50 0 0 0 20,-4"
     fill="none"
     stroke="#000000"
     stroke-width="1.5"
     id="path11" />
  <g
     id="text12"
     style="font-style:italic;font-size:18.6667px;font-family:serif"
     aria-label="θ₁">
    <path
       d="m 160.4752,62.6865 q 2.53386,0 2.53386,3.472663 0,2.096358 -1.02995,4.648445 -1.02084,2.542974 -2.34246,3.800789 -1.3125,1.257814 -2.70703,1.257814 -1.13933,0 -1.85938,-0.966147 -0.71094,-0.975262 -0.71094,-2.424484 0,-0.929689 0.41016,-2.570317 0.41015,-1.640628 1.23047,-3.3086 0.82031,-1.677086 2.05078,-2.789067 1.23959,-1.121096 2.42449,-1.121096 z m 0.5651,6.197928 q 0.61068,-1.923181 0.61068,-3.736986 0,-2.078129 -1.17578,-2.078129 -1.02995,0 -2.02344,1.558597 -0.9935,1.549482 -1.82292,4.256518 z m -4.58464,0.519532 q -0.83855,2.61589 -0.83855,4.010424 0,0.91146 0.3737,1.494794 0.3737,0.57422 1.11198,0.57422 0.61068,0 1.14844,-0.483074 0.53777,-0.492188 1.25782,-1.986982 0.72005,-1.494795 1.35807,-3.609382 z"
       id="path31" />
    <path
       style="font-size:65%;baseline-shift:sub"
       d="m 166.90874,73.711064 q -0.0948,0.337696 -0.20144,0.734637 -0.10071,0.391016 -0.16588,0.669467 l -0.77018,3.341413 q -0.006,0.0237 -0.0119,0.05332 0,0.02962 0,0.05332 0,0.106641 0.0355,0.177735 0.0356,0.06517 0.13627,0.11849 0.10071,0.0474 0.36139,0.08294 0.26068,0.03555 0.44434,0.03555 l -0.0948,0.391016 h -3.22885 l 0.0948,-0.391016 q 0.17773,-0.0059 0.47396,-0.0237 0.29622,-0.0237 0.42064,-0.06517 0.13626,-0.0474 0.22513,-0.130338 0.0948,-0.08887 0.13034,-0.254754 l 0.8709,-3.767975 h -1.16713 l 0.10072,-0.432488 h 0.30807 q 0.47396,0 0.88275,-0.159961 0.41472,-0.165886 0.72279,-0.432488 z"
       id="path32" />
  </g>
  <!-- Length l1 indicator -->
  <g
     id="text13"
     style="font-style:italic;font-size:18.6667px;font-family:serif"
     aria-label="l₁">
    <path
       d="m 185.74813,40.351646 -3.11719,10.846374 q -0.22786,0.811199 -0.22786,0.993491 0,0.136719 0.082,0.227865 0.0911,0.09115 0.21875,0.09115 0.17317,0 0.3737,-0.154948 0.47395,-0.373699 0.99349,-1.157554 l 0.27343,0.282552 q -0.86588,1.221357 -1.59505,1.70443 -0.53776,0.346355 -1.02084,0.346355 -0.34635,0 -0.58333,-0.236979 -0.22786,-0.23698 -0.22786,-0.546876 0,-0.328126 0.29166,-1.348961 l 2.47006,-8.549495 q 0.30078,-1.048179 0.30078,-1.203127 0,-0.21875 -0.17318,-0.355469 -0.17317,-0.145834 -0.53776,-0.145834 -0.20963,0 -0.63802,0.0638 v -0.33724 z"
       id="path33" />
    <path
       style="font-size:65%;baseline-shift:sub"
       d="m 189.58401,51.37621 q -0.0948,0.337696 -0.20143,0.734637 -0.10072,0.391016 -0.16589,0.669467 l -0.77018,3.341412 q -0.006,0.0237 -0.0118,0.05332 0,0.02962 0,0.05332 0,0.106641 0.0356,0.177735 0.0356,0.06517 0.13626,0.11849 0.10072,0.0474 0.3614,0.08294 0.26067,0.03555 0.44433,0.03555 l -0.0948,0.391016 h -3.22885 l 0.0948,-0.391016 q 0.17773,-0.0059 0.47395,-0.0237 0.29623,-0.0237 0.42064,-0.06517 0.13627,-0.0474 0.22513,-0.130339 0.0948,-0.08887 0.13034,-0.254753 l 0.8709,-3.767975 h -1.16712 l 0.10071,-0.432488 h 0.30808 q 0.47396,0 0.88275,-0.159961 0.41471,-0.165886 0.72278,-0.432488 z"
       id="path34" />
  </g>
  <!-- Vertical reference line from joint (dashed) -->
  <line
     x1="215.21655"
     y1="155"
     x2="215.21655"
     y2="215.11002"
     stroke="#808080"
     stroke-width="1"
     stroke-dasharray="4, 4"
     id="line13" />
  <!-- Angle theta2 arc - from vertical toward arm -->
  <path
     d="m 215,200 c 11.97292,-0.46285 24.57323,-7.2497 32.3165,-14.32323"
     fill="none"
     stroke="#000000"
     stroke-width="1.5"
     id="path13"
     sodipodi:nodetypes="cc" />
  <g
     id="text14"
     style="font-style:italic;font-size:18.6667px;font-family:serif"
     aria-label="θ₂">
    <path
       d="m 229.70791,203.93763 q 2.53386,0 2.53386,3.47266 0,2.09636 -1.02995,4.64845 -1.02084,2.54297 -2.34245,3.80079 -1.31251,1.25781 -2.70704,1.25781 -1.13933,0 -1.85938,-0.96615 -0.71094,-0.97526 -0.71094,-2.42448 0,-0.92969 0.41016,-2.57032 0.41016,-1.64063 1.23047,-3.3086 0.82031,-1.67708 2.05078,-2.78907 1.23959,-1.12109 2.42449,-1.12109 z m 0.5651,6.19793 q 0.61068,-1.92318 0.61068,-3.73699 0,-2.07813 -1.17578,-2.07813 -1.02995,0 -2.02344,1.5586 -0.99349,1.54948 -1.82292,4.25652 z m -4.58464,0.51953 q -0.83854,2.61589 -0.83854,4.01042 0,0.91146 0.3737,1.4948 0.37369,0.57422 1.11198,0.57422 0.61067,0 1.14844,-0.48308 0.53776,-0.49218 1.25781,-1.98698 0.72005,-1.49479 1.35808,-3.60938 z"
       id="path45" />
    <path
       style="font-size:65%;baseline-shift:sub"
       d="m 237.28488,216.26558 q 0,0.47396 -0.17774,0.85905 -0.17773,0.37917 -0.45618,0.64577 -0.28438,0.27253 -0.628,0.47989 -0.34362,0.20735 -0.75834,0.39101 -0.42063,0.18366 -1.02493,0.50951 -0.6043,0.31992 -1.02494,0.64577 h 3.69688 l -0.18958,0.8235 h -4.46114 l 0.15403,-0.65762 q 0.3851,-0.47396 0.99532,-0.8472 0.61022,-0.37917 1.15527,-0.70501 0.25476,-0.15404 0.59245,-0.40879 0.34362,-0.25476 0.52728,-0.47989 0.23106,-0.27845 0.3614,-0.5806 0.13034,-0.30215 0.13034,-0.73463 0,-0.41472 -0.24291,-0.64577 -0.2429,-0.23106 -0.64577,-0.23106 -0.30215,0 -0.56875,0.11257 -0.26068,0.10664 -0.40286,0.27845 0,0.0533 0.006,0.15403 0.0119,0.0948 0.0119,0.22514 0,0.39694 -0.17774,0.59837 -0.17773,0.20143 -0.59244,0.20143 -0.23106,0 -0.33178,-0.13034 -0.10071,-0.13626 -0.10071,-0.314 0,-0.24882 0.17181,-0.5095 0.17773,-0.2666 0.49173,-0.50358 0.30215,-0.23106 0.73464,-0.37917 0.43841,-0.14811 0.94792,-0.14811 0.7998,0 1.30338,0.36139 0.50359,0.35547 0.50359,0.98939 z"
       id="path46" />
  </g>
  <!-- Length l2 indicator -->
  <g
     id="text15"
     style="font-style:italic;font-size:18.6667px;font-family:serif"
     aria-label="l₂">
    <path
       d="m 254.49385,160.02051 -3.1172,10.84638 q -0.22786,0.8112 -0.22786,0.99349 0,0.13672 0.082,0.22787 0.0911,0.0911 0.21875,0.0911 0.17318,0 0.3737,-0.15495 0.47396,-0.3737 0.99349,-1.15755 l 0.27344,0.28255 q -0.86589,1.22136 -1.59506,1.70443 -0.53776,0.34636 -1.02083,0.34636 -0.34636,0 -0.58334,-0.23698 -0.22786,-0.23698 -0.22786,-0.54688 0,-0.32812 0.29166,-1.34896 l 2.47006,-8.54949 q 0.30078,-1.04818 0.30078,-1.20313 0,-0.21875 -0.17317,-0.35547 -0.17318,-0.14583 -0.53777,-0.14583 -0.20963,0 -0.63802,0.0638 v -0.33724 z"
       id="path47" />
    <path
       style="font-size:65%;baseline-shift:sub"
       d="m 259.47315,172.34847 q 0,0.47396 -0.17773,0.85905 -0.17774,0.37917 -0.45619,0.64577 -0.28437,0.27252 -0.628,0.47988 -0.34362,0.20736 -0.75833,0.39102 -0.42064,0.18366 -1.02494,0.5095 -0.60429,0.31993 -1.02493,0.64577 h 3.69688 l -0.18959,0.82351 h -4.46114 l 0.15404,-0.65762 q 0.38509,-0.47396 0.99531,-0.8472 0.61023,-0.37917 1.15528,-0.70502 0.25475,-0.15403 0.59245,-0.40879 0.34362,-0.25475 0.52728,-0.47988 0.23105,-0.27845 0.36139,-0.5806 0.13034,-0.30215 0.13034,-0.73464 0,-0.41471 -0.2429,-0.64577 -0.24291,-0.23105 -0.64577,-0.23105 -0.30215,0 -0.56875,0.11256 -0.26068,0.10664 -0.40287,0.27845 0,0.0533 0.006,0.15404 0.0118,0.0948 0.0118,0.22513 0,0.39694 -0.17774,0.59837 -0.17773,0.20144 -0.59245,0.20144 -0.23105,0 -0.33177,-0.13034 -0.10072,-0.13626 -0.10072,-0.314 0,-0.24883 0.17181,-0.50951 0.17774,-0.2666 0.49174,-0.50358 0.30215,-0.23105 0.73463,-0.37916 0.43842,-0.14812 0.94792,-0.14812 0.79981,0 1.30339,0.3614 0.50358,0.35547 0.50358,0.98939 z"
       id="path48" />
  </g>
  <!-- Gravity vector on center of mass 1 -->
  <defs
     id="defs15">
    <marker
       id="arrowhead2"
       markerWidth="10"
       markerHeight="10"
       refX="9"
       refY="3"
       orient="auto">
      <polygon
         points="10,3 0,6 0,0 "
         fill="#000000"
         id="polygon15" />
    </marker>
  </defs>
  <g
     id="text16"
     style="font-style:italic;font-size:18.6667px;font-family:serif"
     aria-label="m₁g">
    <path
       d="m 146.28928,127.54067 -1.18489,4.11068 q 0.79297,-1.44922 1.34896,-2.17838 0.86588,-1.13022 1.6862,-1.64063 0.48307,-0.29167 1.01172,-0.29167 0.45573,0 0.75651,0.29167 0.30078,0.29166 0.30078,0.74739 0,0.44662 -0.20963,1.16667 l -0.64714,2.31511 q 1.48568,-2.77995 2.81641,-3.90105 0.73828,-0.61979 1.45834,-0.61979 0.41927,0 0.68359,0.29167 0.27344,0.28255 0.27344,0.88411 0,0.52865 -0.16406,1.1211 l -1.00261,3.54558 q -0.32813,1.15755 -0.32813,1.28516 0,0.1276 0.082,0.21875 0.0547,0.0638 0.14583,0.0638 0.0911,0 0.31901,-0.17318 0.51953,-0.40104 0.97526,-1.05729 l 0.30078,0.19141 q -0.22786,0.36458 -0.81119,1.0026 -0.57422,0.63802 -0.98438,0.86589 -0.41016,0.22786 -0.75651,0.22786 -0.31901,0 -0.53776,-0.21875 -0.20964,-0.21875 -0.20964,-0.53776 0,-0.4375 0.3737,-1.75912 l 0.82943,-2.92578 q 0.28255,-1.01172 0.30078,-1.1211 0.0273,-0.17318 0.0273,-0.33724 0,-0.22786 -0.10026,-0.35547 -0.10937,-0.1276 -0.24609,-0.1276 -0.38282,0 -0.8112,0.39193 -1.25782,1.15755 -2.35157,3.24479 -0.72005,1.37631 -1.34896,3.52735 h -1.3763 l 1.55859,-5.51433 q 0.25521,-0.89323 0.25521,-1.19401 0,-0.2461 -0.10026,-0.36459 -0.10026,-0.11849 -0.24609,-0.11849 -0.30079,0 -0.63803,0.21875 -0.54687,0.35547 -1.41276,1.52214 -0.85677,1.16667 -1.33073,2.23308 -0.22786,0.5013 -1.08464,3.21745 h -1.34896 l 1.6862,-5.90626 0.21875,-0.76562 q 0.0638,-0.17318 0.0638,-0.25521 0,-0.20052 -0.1823,-0.35547 -0.18229,-0.16407 -0.46484,-0.16407 -0.11849,0 -0.65625,0.10938 l -0.082,-0.33724 z"
       id="path42" />
    <path
       style="font-size:65%;baseline-shift:sub"
       d="m 159.92336,133.85299 q -0.0948,0.33769 -0.20143,0.73463 -0.10072,0.39102 -0.16589,0.66947 l -0.77018,3.34141 q -0.006,0.0237 -0.0119,0.0533 0,0.0296 0,0.0533 0,0.10664 0.0355,0.17774 0.0356,0.0652 0.13627,0.11849 0.10071,0.0474 0.36139,0.0829 0.26068,0.0356 0.44434,0.0356 l -0.0948,0.39101 h -3.22885 l 0.0948,-0.39101 q 0.17774,-0.006 0.47396,-0.0237 0.29622,-0.0237 0.42064,-0.0652 0.13626,-0.0474 0.22513,-0.13034 0.0948,-0.0889 0.13034,-0.25475 l 0.8709,-3.76798 h -1.16713 l 0.10072,-0.43248 h 0.30807 q 0.47396,0 0.88275,-0.15997 0.41472,-0.16588 0.72279,-0.43248 z"
       id="path43" />
    <path
       d="m 171.51485,128.10578 -0.26432,0.94791 h -1.52214 q 0.17318,0.49219 0.17318,0.92058 0,1.20313 -1.02084,2.14193 -1.02995,0.9388 -2.82553,1.03906 -0.96614,0.29167 -1.44922,0.69271 -0.18229,0.14584 -0.18229,0.30078 0,0.1823 0.16406,0.33725 0.16407,0.14583 0.82943,0.30078 l 1.76823,0.41015 q 1.46746,0.34636 1.94141,0.82032 0.46485,0.48307 0.46485,1.11198 0,0.7474 -0.55599,1.36719 -0.54688,0.61979 -1.61329,0.96615 -1.05729,0.35547 -2.34245,0.35547 -1.13021,0 -2.0599,-0.27344 -0.92969,-0.26433 -1.33073,-0.72006 -0.40104,-0.45573 -0.40104,-0.9388 0,-0.39193 0.26432,-0.82031 0.25521,-0.41927 0.64714,-0.69271 0.24609,-0.17318 1.39453,-0.82032 -0.41927,-0.32812 -0.41927,-0.72005 0,-0.36458 0.36458,-0.77474 0.3737,-0.41016 1.56772,-0.90235 -1.00261,-0.1914 -1.59506,-0.83854 -0.58333,-0.64714 -0.58333,-1.44011 0,-1.29427 1.13021,-2.3151 1.13932,-1.02084 3.02604,-1.02084 0.6836,0 1.1211,0.13672 0.4375,0.13672 0.84766,0.42839 z m -3.16277,1.43099 q 0,-0.72917 -0.41015,-1.14844 -0.40105,-0.41927 -1.0573,-0.41927 -1.02995,0 -1.70443,1.03906 -0.66536,1.02995 -0.66536,2.15105 0,0.70182 0.42838,1.14844 0.42839,0.44661 1.03907,0.44661 0.48307,0 0.92969,-0.26432 0.45573,-0.26433 0.76562,-0.72917 0.3099,-0.46484 0.49219,-1.1849 0.18229,-0.72005 0.18229,-1.03906 z m -4.36589,6.25261 q -0.73828,0.33724 -1.1211,0.86589 -0.37369,0.52865 -0.37369,1.03906 0,0.60157 0.54687,0.9935 0.78386,0.5651 2.29688,0.5651 1.30339,0 2.22396,-0.44661 0.92969,-0.43751 0.92969,-1.13933 0,-0.35547 -0.34635,-0.67448 -0.33724,-0.31901 -1.32162,-0.51953 -0.53776,-0.10938 -2.83464,-0.6836 z"
       id="path44" />
  </g>
  <!-- Gravity vector on center of mass 2 -->
  <line
     x1="272.5"
     y1="209.5"
     x2="272.5"
     y2="263.01181"
     stroke="#000000"
     stroke-width="1.5"
     marker-end="url(#arrowhead2)"
     id="line16" />
  <line
     x1="182.43622"
     y1="80.639862"
     x2="182.43622"
     y2="134.15167"
     stroke="#000000"
     stroke-width="1.5"
     marker-end="url(#arrowhead2-4)"
     id="line16-8"
     style="marker-end:url(#arrowhead2-4)" />
  <g
     id="text17"
     style="font-style:italic;font-size:18.6667px;font-family:serif"
     aria-label="m₂g">
    <path
       d="m 243.21906,266.83338 -1.1849,4.11068 q 0.79297,-1.44922 1.34897,-2.17839 0.86588,-1.13021 1.6862,-1.64062 0.48307,-0.29167 1.01172,-0.29167 0.45573,0 0.75651,0.29167 0.30078,0.29166 0.30078,0.74739 0,0.44662 -0.20964,1.16667 l -0.64713,2.31511 q 1.48568,-2.77995 2.81641,-3.90105 0.73828,-0.61979 1.45834,-0.61979 0.41927,0 0.68359,0.29167 0.27344,0.28255 0.27344,0.88411 0,0.52865 -0.16406,1.1211 l -1.00261,3.54558 q -0.32813,1.15755 -0.32813,1.28516 0,0.1276 0.082,0.21875 0.0547,0.0638 0.14583,0.0638 0.0911,0 0.31901,-0.17318 0.51953,-0.40104 0.97526,-1.05729 l 0.30078,0.1914 q -0.22786,0.36459 -0.8112,1.00261 -0.57422,0.63802 -0.98437,0.86589 -0.41016,0.22786 -0.75651,0.22786 -0.31902,0 -0.53777,-0.21875 -0.20963,-0.21875 -0.20963,-0.53776 0,-0.4375 0.3737,-1.75912 l 0.82943,-2.92578 q 0.28255,-1.01172 0.30078,-1.1211 0.0273,-0.17318 0.0273,-0.33724 0,-0.22786 -0.10026,-0.35547 -0.10937,-0.1276 -0.24609,-0.1276 -0.38282,0 -0.8112,0.39192 -1.25782,1.15756 -2.35157,3.2448 -0.72005,1.37631 -1.34896,3.52735 h -1.3763 l 1.55859,-5.51433 q 0.25521,-0.89323 0.25521,-1.19401 0,-0.2461 -0.10026,-0.36459 -0.10026,-0.11849 -0.24609,-0.11849 -0.30079,0 -0.63803,0.21875 -0.54687,0.35547 -1.41276,1.52214 -0.85677,1.16667 -1.33073,2.23308 -0.22787,0.5013 -1.08464,3.21745 h -1.34896 l 1.6862,-5.90626 0.21875,-0.76562 q 0.0638,-0.17318 0.0638,-0.25521 0,-0.20052 -0.18229,-0.35547 -0.18229,-0.16407 -0.46484,-0.16407 -0.11849,0 -0.65625,0.10938 l -0.082,-0.33724 z"
       id="path56" />
    <path
       style="font-size:65%;baseline-shift:sub"
       d="m 257.99656,274.44908 q 0,0.47396 -0.17773,0.85905 -0.17774,0.37917 -0.45619,0.64577 -0.28437,0.27253 -0.62799,0.47989 -0.34362,0.20735 -0.75834,0.39101 -0.42064,0.18366 -1.02493,0.50951 -0.6043,0.31992 -1.02494,0.64577 h 3.69688 l -0.18958,0.8235 h -4.46114 l 0.15403,-0.65762 q 0.38509,-0.47395 0.99532,-0.8472 0.61022,-0.37916 1.15527,-0.70501 0.25476,-0.15404 0.59245,-0.40879 0.34362,-0.25475 0.52728,-0.47988 0.23106,-0.27846 0.3614,-0.5806 0.13033,-0.30215 0.13033,-0.73464 0,-0.41472 -0.2429,-0.64577 -0.2429,-0.23106 -0.64577,-0.23106 -0.30215,0 -0.56875,0.11257 -0.26068,0.10664 -0.40287,0.27845 0,0.0533 0.006,0.15404 0.0118,0.0948 0.0118,0.22513 0,0.39694 -0.17774,0.59837 -0.17773,0.20143 -0.59245,0.20143 -0.23105,0 -0.33177,-0.13034 -0.10071,-0.13626 -0.10071,-0.31399 0,-0.24883 0.17181,-0.50951 0.17773,-0.2666 0.49173,-0.50358 0.30215,-0.23106 0.73464,-0.37917 0.43841,-0.14811 0.94791,-0.14811 0.79981,0 1.30339,0.36139 0.50358,0.35547 0.50358,0.98939 z"
       id="path57" />
    <path
       d="m 268.44463,267.39848 -0.26432,0.94792 h -1.52214 q 0.17317,0.49219 0.17317,0.92058 0,1.20312 -1.02083,2.14193 -1.02995,0.9388 -2.82553,1.03906 -0.96614,0.29167 -1.44922,0.69271 -0.18229,0.14584 -0.18229,0.30078 0,0.1823 0.16406,0.33724 0.16407,0.14584 0.82943,0.30079 l 1.76823,0.41015 q 1.46745,0.34636 1.94141,0.82032 0.46485,0.48307 0.46485,1.11198 0,0.7474 -0.55599,1.36719 -0.54688,0.61979 -1.61329,0.96615 -1.05729,0.35547 -2.34245,0.35547 -1.13021,0 -2.0599,-0.27344 -0.92969,-0.26433 -1.33073,-0.72006 -0.40104,-0.45573 -0.40104,-0.9388 0,-0.39193 0.26432,-0.82031 0.25521,-0.41928 0.64714,-0.69271 0.24609,-0.17318 1.39453,-0.82032 -0.41927,-0.32812 -0.41927,-0.72005 0,-0.36458 0.36458,-0.77474 0.3737,-0.41016 1.56772,-0.90235 -1.00261,-0.1914 -1.59506,-0.83854 -0.58333,-0.64714 -0.58333,-1.44011 0,-1.29427 1.13021,-2.31511 1.13932,-1.02083 3.02604,-1.02083 0.6836,0 1.1211,0.13672 0.4375,0.13672 0.84766,0.42838 z m -3.16277,1.431 q 0,-0.72917 -0.41015,-1.14844 -0.40105,-0.41927 -1.0573,-0.41927 -1.02995,0 -1.70443,1.03906 -0.66536,1.02995 -0.66536,2.15105 0,0.70182 0.42838,1.14844 0.42839,0.44661 1.03907,0.44661 0.48307,0 0.92969,-0.26432 0.45573,-0.26433 0.76562,-0.72917 0.3099,-0.46485 0.49219,-1.1849 0.18229,-0.72005 0.18229,-1.03906 z m -4.36589,6.25261 q -0.73828,0.33724 -1.1211,0.86589 -0.3737,0.52865 -0.3737,1.03906 0,0.60157 0.54688,0.9935 0.78386,0.5651 2.29688,0.5651 1.30339,0 2.22396,-0.44662 0.92969,-0.4375 0.92969,-1.13932 0,-0.35547 -0.34635,-0.67448 -0.33724,-0.31901 -1.32162,-0.51953 -0.53776,-0.10938 -2.83464,-0.6836 z"
       id="path58" />
  </g>
  <!-- Moment of inertia notation -->
  <!-- Distributed mass note -->
</svg>
