<?xml version="1.0" encoding="UTF-8" standalone="no"?>
<svg
   viewBox="0 0 387.28076 325.10709"
   width="387.28076"
   height="325.10709"
   version="1.1"
   id="svg14"
   sodipodi:docname="simple-pendulum-diagram.svg"
   inkscape:version="1.4.2 (ebf0e940, 2025-05-08)"
   xmlns:inkscape="http://www.inkscape.org/namespaces/inkscape"
   xmlns:sodipodi="http://sodipodi.sourceforge.net/DTD/sodipodi-0.dtd"
   xmlns:xlink="http://www.w3.org/1999/xlink"
   xmlns="http://www.w3.org/2000/svg"
   xmlns:svg="http://www.w3.org/2000/svg">
  <sodipodi:namedview
     id="namedview14"
     pagecolor="#ffffff"
     bordercolor="#000000"
     borderopacity="0.25"
     inkscape:showpageshadow="2"
     inkscape:pageopacity="0.0"
     inkscape:pagecheckerboard="0"
     inkscape:deskcolor="#d1d1d1"
     showgrid="false"
     inkscape:zoom="1.4620576"
     inkscape:cx="223.99938"
     inkscape:cy="135.42558"
     inkscape:window-width="1264"
     inkscape:window-height="1097"
     inkscape:window-x="542"
     inkscape:window-y="44"
     inkscape:window-maximized="0"
     inkscape:current-layer="svg14" />
  <!-- Title -->
  <!-- Ceiling -->
  <line
     x1="0"
     y1="10"
     x2="380"
     y2="10"
     stroke="#000000"
     stroke-width="3"
     id="line1" />
  <pattern
     id="ceiling"
     x="0"
     y="0"
     width="10"
     height="10"
     patternUnits="userSpaceOnUse">
    <line
       x1="0"
       y1="10"
       x2="10"
       y2="0"
       stroke="black"
       stroke-width="1"
       id="line2" />
  </pattern>
  <rect
     x="0"
     y="0"
     width="380"
     height="10"
     fill="url(#ceiling)"
     id="rect2"
     style="fill:url(#pattern147)" />
  <!-- Pivot point -->
  <path
     d="m 109.98527,33.47645 -0.30989,0.145834 q -1.08464,-2.069015 -1.5586,-3.654955 -0.36459,-1.239586 -0.36459,-2.4974 0,-2.934901 1.35808,-5.259124 1.66797,-2.843756 5.40496,-5.541677 l 0.21875,0.319011 q -1.6862,1.2487 -2.75261,2.798182 -1.33073,1.932295 -2.17839,4.666675 -0.84766,2.73438 -0.84766,4.976572 0,1.713544 1.02995,4.046882 z m 9.16017,-16.460967 q 1.16667,0 1.95964,0.975262 0.80209,0.975262 0.80209,3.080735 0,1.80469 -0.59245,3.682298 -0.59245,1.877607 -1.66797,3.253912 -0.85678,1.084637 -1.79558,1.567711 -0.54688,0.273438 -1.26693,0.273438 -1.1849,0 -1.98698,-0.975262 -0.79297,-0.975262 -0.79297,-3.089849 0,-2.087244 0.80208,-4.192716 0.93881,-2.460942 2.39714,-3.736986 0.95704,-0.838543 2.14193,-0.838543 z m 0.009,0.473959 q -0.52865,0 -1.07552,0.419271 -0.53777,0.410157 -1.1211,1.72266 -0.57422,1.312502 -1.10287,3.381516 -0.68359,2.707036 -0.68359,4.611988 0,0.947918 0.41016,1.421877 0.41015,0.464845 0.99349,0.464845 0.55599,0 0.94792,-0.364584 1.04817,-0.984377 1.79557,-3.363287 1.21224,-3.891934 1.21224,-6.325533 0,-1.01172 -0.41015,-1.485679 -0.41016,-0.483074 -0.96615,-0.483074 z m 2.67969,14.191432 q 0.6836,-0.309897 1.11198,-0.783856 0.32813,-0.364584 0.32813,-0.701824 0,-0.164063 -0.0547,-0.300782 -0.0365,-0.07292 -0.25521,-0.291667 -0.21875,-0.21875 -0.24609,-0.300782 -0.0638,-0.154948 -0.0638,-0.355469 0,-0.391928 0.26432,-0.674481 0.27344,-0.282552 0.63802,-0.282552 0.3737,0 0.65625,0.300782 0.29167,0.300781 0.29167,0.756511 0,0.8112 -0.63802,1.640628 -0.63803,0.829429 -1.85027,1.285159 z m 15.9779,-14.665391 q 1.16666,0 1.95963,0.975262 0.80209,0.975262 0.80209,3.080735 0,1.80469 -0.59245,3.682298 -0.59245,1.877607 -1.66797,3.253912 -0.85677,1.084637 -1.79558,1.567711 -0.54687,0.273438 -1.26693,0.273438 -1.1849,0 -1.98698,-0.975262 -0.79297,-0.975262 -0.79297,-3.089849 0,-2.087244 0.80208,-4.192716 0.93881,-2.460942 2.39714,-3.736986 0.95704,-0.838543 2.14194,-0.838543 z m 0.009,0.473959 q -0.52865,0 -1.07552,0.419271 -0.53776,0.410157 -1.1211,1.72266 -0.57422,1.312502 -1.10287,3.381516 -0.68359,2.707036 -0.68359,4.611988 0,0.947918 0.41016,1.421877 0.41015,0.464845 0.99349,0.464845 0.55599,0 0.94792,-0.364584 1.04818,-0.984377 1.79557,-3.363287 1.21224,-3.891934 1.21224,-6.325533 0,-1.01172 -0.41015,-1.485679 -0.41016,-0.483074 -0.96615,-0.483074 z m 5.58725,-0.647137 0.3099,-0.173177 q 1.08463,2.059899 1.54948,3.64584 0.3737,1.239585 0.3737,2.4974 0,2.944016 -1.35808,5.259124 -1.67708,2.85287 -5.40496,5.550792 l -0.21875,-0.282553 q 1.68621,-1.257815 2.75261,-2.798182 1.33073,-1.932295 2.17839,-4.666675 0.84766,-2.743495 0.84766,-4.985686 0,-1.713545 -1.02995,-4.046883 z"
     id="text2"
     style="font-style:italic;font-size:18.6667px;font-family:serif"
     aria-label="(0, 0)" />
  <!-- First arm angle = 25 degrees, second arm angle = 45 degrees for illustration -->
  <!-- First pendulum arm (thin rod) -->
  <line
     x1="150"
     y1="10"
     x2="215"
     y2="155"
     stroke="#888888"
     stroke-width="2"
     id="line3" />
  <!-- Mass 1 (point mass) -->
  <g
     id="text4"
     style="font-style:italic;font-size:18.6667px;font-family:serif"
     aria-label="m₁"
     transform="translate(-50,-50)">
    <path
       d="m 236.05291,186.94048 -1.1849,4.11069 q 0.79297,-1.44923 1.34896,-2.17839 0.86589,-1.13021 1.6862,-1.64063 0.48308,-0.29167 1.01172,-0.29167 0.45573,0 0.75652,0.29167 0.30078,0.29167 0.30078,0.7474 0,0.44661 -0.20964,1.16666 l -0.64713,2.31511 q 1.48567,-2.77995 2.81641,-3.90105 0.73828,-0.61979 1.45833,-0.61979 0.41927,0 0.6836,0.29167 0.27344,0.28255 0.27344,0.88411 0,0.52865 -0.16407,1.1211 l -1.0026,3.54558 q -0.32813,1.15755 -0.32813,1.28516 0,0.1276 0.082,0.21875 0.0547,0.0638 0.14584,0.0638 0.0911,0 0.31901,-0.17318 0.51953,-0.40104 0.97526,-1.05729 l 0.30078,0.19141 q -0.22786,0.36458 -0.8112,1.0026 -0.57422,0.63802 -0.98438,0.86589 -0.41015,0.22786 -0.75651,0.22786 -0.31901,0 -0.53776,-0.21875 -0.20963,-0.21875 -0.20963,-0.53776 0,-0.4375 0.37369,-1.75912 l 0.82943,-2.92578 q 0.28256,-1.01172 0.30078,-1.1211 0.0274,-0.17318 0.0274,-0.33724 0,-0.22786 -0.10026,-0.35547 -0.10938,-0.1276 -0.2461,-0.1276 -0.38281,0 -0.8112,0.39193 -1.25781,1.15755 -2.35156,3.24479 -0.72006,1.37631 -1.34896,3.52735 h -1.37631 l 1.5586,-5.51433 q 0.25521,-0.89323 0.25521,-1.19401 0,-0.2461 -0.10026,-0.36459 -0.10026,-0.11849 -0.2461,-0.11849 -0.30078,0 -0.63802,0.21875 -0.54688,0.35547 -1.41276,1.52214 -0.85677,1.16667 -1.33073,2.23308 -0.22787,0.5013 -1.08464,3.21745 h -1.34896 l 1.6862,-5.90626 0.21875,-0.76562 q 0.0638,-0.17318 0.0638,-0.25521 0,-0.20052 -0.18229,-0.35547 -0.18229,-0.16406 -0.46484,-0.16406 -0.11849,0 -0.65626,0.10937 l -0.082,-0.33724 z"
       id="path130" />
    <path
       style="font-size:65%;baseline-shift:sub"
       d="m 249.68698,193.2528 q -0.0948,0.33769 -0.20143,0.73463 -0.10071,0.39102 -0.16588,0.66947 l -0.77019,3.34141 q -0.006,0.0237 -0.0118,0.0533 0,0.0296 0,0.0533 0,0.10664 0.0356,0.17774 0.0356,0.0652 0.13626,0.11849 0.10072,0.0474 0.3614,0.0829 0.26067,0.0356 0.44433,0.0356 l -0.0948,0.39101 h -3.22884 l 0.0948,-0.39101 q 0.17773,-0.006 0.47396,-0.0237 0.29622,-0.0237 0.42063,-0.0652 0.13627,-0.0474 0.22514,-0.13034 0.0948,-0.0889 0.13033,-0.25475 l 0.8709,-3.76798 h -1.16712 l 0.10072,-0.43248 h 0.30807 q 0.47396,0 0.88275,-0.15997 0.41471,-0.16588 0.72279,-0.43248 z"
       id="path131" />
  </g>
  <path
     d="m 214.78153,188.58305 c 9.27572,-0.36134 17.43287,-5.45547 24.09256,-11.67444"
     fill="none"
     stroke="#000000"
     stroke-width="1.5"
     id="path7-0"
     sodipodi:nodetypes="cc" />
  <g
     id="text5"
     style="font-style:italic;font-size:18.6667px;font-family:serif"
     aria-label="(x₁, y₁)"
     transform="translate(-50,-50)">
    <path
       d="m 277.65442,200.09748 -0.3099,0.14583 q -1.08464,-2.06902 -1.5586,-3.65496 -0.36458,-1.23958 -0.36458,-2.4974 0,-2.9349 1.35807,-5.25912 1.66798,-2.84376 5.40496,-5.54168 l 0.21875,0.31901 q -1.6862,1.2487 -2.75261,2.79819 -1.33073,1.93229 -2.17839,4.66667 -0.84765,2.73438 -0.84765,4.97657 0,1.71355 1.02995,4.04689 z m 5.94271,-12.09508 q 0.44662,0.47396 0.67448,0.94792 0.16407,0.32813 0.53777,1.72266 l 0.80208,-1.20313 q 0.31901,-0.4375 0.77474,-0.82943 0.45573,-0.40104 0.80209,-0.54687 0.21875,-0.0911 0.48307,-0.0911 0.39193,0 0.61979,0.20964 0.23698,0.20963 0.23698,0.51041 0,0.34636 -0.13672,0.47396 -0.25521,0.22787 -0.58333,0.22787 -0.19141,0 -0.41016,-0.082 -0.42838,-0.14584 -0.57422,-0.14584 -0.21875,0 -0.51953,0.25521 -0.5651,0.47396 -1.34896,1.83204 l 0.7474,3.13542 q 0.17317,0.72005 0.29166,0.86589 0.11849,0.13672 0.23698,0.13672 0.19141,0 0.44662,-0.20964 0.5013,-0.41927 0.85677,-1.09375 l 0.31901,0.16406 q -0.57422,1.07552 -1.45833,1.78646 -0.50131,0.40104 -0.84766,0.40104 -0.51042,0 -0.8112,-0.57422 -0.19141,-0.35546 -0.79297,-3.0625 -1.42188,2.47006 -2.27865,3.18099 -0.55599,0.45573 -1.07552,0.45573 -0.36459,0 -0.66537,-0.26432 -0.21875,-0.20052 -0.21875,-0.53776 0,-0.30078 0.20052,-0.5013 0.20052,-0.20052 0.49219,-0.20052 0.29167,0 0.61979,0.29166 0.23698,0.20964 0.36459,0.20964 0.10937,0 0.28255,-0.14584 0.42839,-0.34635 1.16667,-1.49479 0.73828,-1.14844 0.96615,-1.65886 -0.56511,-2.21484 -0.61068,-2.34245 -0.20964,-0.59245 -0.54688,-0.83854 -0.33724,-0.2461 -0.99349,-0.2461 -0.20964,0 -0.48307,0.0182 v -0.32812 z"
       id="path122" />
    <path
       style="font-size:65%;baseline-shift:sub"
       d="m 292.84709,194.31472 q -0.0948,0.33769 -0.20144,0.73463 -0.10071,0.39102 -0.16588,0.66947 l -0.77019,3.34141 q -0.006,0.0237 -0.0119,0.0533 0,0.0296 0,0.0533 0,0.10665 0.0356,0.17774 0.0356,0.0652 0.13627,0.11849 0.10071,0.0474 0.36139,0.0829 0.26068,0.0356 0.44434,0.0356 l -0.0948,0.39101 h -3.22884 l 0.0948,-0.39101 q 0.17773,-0.006 0.47396,-0.0237 0.29622,-0.0237 0.42064,-0.0652 0.13626,-0.0474 0.22513,-0.13034 0.0948,-0.0889 0.13034,-0.25475 l 0.8709,-3.76798 h -1.16713 l 0.10072,-0.43248 h 0.30807 q 0.47396,0 0.88275,-0.15997 0.41471,-0.16588 0.72279,-0.43248 z"
       id="path123" />
    <path
       d="m 294.52189,198.3019 q 0.6836,-0.3099 1.11199,-0.78386 0.32812,-0.36458 0.32812,-0.70182 0,-0.16406 -0.0547,-0.30078 -0.0365,-0.0729 -0.25521,-0.29167 -0.21875,-0.21875 -0.24609,-0.30078 -0.0638,-0.15495 -0.0638,-0.35547 0,-0.39193 0.26432,-0.67448 0.27344,-0.28255 0.63802,-0.28255 0.3737,0 0.65625,0.30078 0.29167,0.30078 0.29167,0.75651 0,0.8112 -0.63802,1.64063 -0.63802,0.82943 -1.85026,1.28516 z m 12.50523,-10.2995 q 0.3099,0.52865 0.42839,0.99349 0.11849,0.45573 0.23698,1.80469 l 0.40104,4.48439 q 0.54688,-0.65625 1.58594,-2.07813 0.50131,-0.69271 1.23959,-1.88672 0.44661,-0.72917 0.54687,-1.02084 0.0547,-0.14583 0.0547,-0.30078 0,-0.10026 -0.0638,-0.16406 -0.0638,-0.0638 -0.33724,-0.14584 -0.26432,-0.0911 -0.44662,-0.31901 -0.17317,-0.23698 -0.17317,-0.53776 0,-0.3737 0.21875,-0.60156 0.21875,-0.22787 0.54687,-0.22787 0.40105,0 0.6836,0.33724 0.28255,0.32813 0.28255,0.91146 0,0.72005 -0.49219,1.64974 -0.49219,0.92058 -1.89583,2.83464 -1.40365,1.91407 -3.39975,4.17449 -1.3763,1.5586 -2.04167,1.95964 -0.66537,0.41016 -1.13933,0.41016 -0.28255,0 -0.49218,-0.21875 -0.21875,-0.20964 -0.21875,-0.49219 0,-0.35547 0.30078,-0.64714 0.29166,-0.29167 0.63802,-0.29167 0.18229,0 0.30078,0.082 0.0729,0.0456 0.16406,0.2552 0.082,0.21876 0.15495,0.29167 0.0456,0.0456 0.10938,0.0456 0.0547,0 0.1914,-0.0911 0.50131,-0.3099 1.16667,-0.98438 0.875,-0.89323 1.29428,-1.45833 l -0.51042,-5.77866 q -0.12761,-1.43099 -0.38281,-1.74089 -0.25521,-0.3099 -0.85678,-0.3099 -0.1914,0 -0.68359,0.0547 l -0.082,-0.33724 z"
       id="path124" />
    <path
       style="font-size:65%;baseline-shift:sub"
       d="m 316.53228,194.31472 q -0.0948,0.33769 -0.20143,0.73463 -0.10071,0.39102 -0.16588,0.66947 l -0.77019,3.34141 q -0.006,0.0237 -0.0119,0.0533 0,0.0296 0,0.0533 0,0.10665 0.0356,0.17774 0.0356,0.0652 0.13626,0.11849 0.10072,0.0474 0.3614,0.0829 0.26068,0.0356 0.44433,0.0356 l -0.0948,0.39101 h -3.22884 l 0.0948,-0.39101 q 0.17773,-0.006 0.47396,-0.0237 0.29622,-0.0237 0.42064,-0.0652 0.13626,-0.0474 0.22513,-0.13034 0.0948,-0.0889 0.13033,-0.25475 l 0.8709,-3.76798 h -1.16712 l 0.10072,-0.43248 h 0.30807 q 0.47396,0 0.88275,-0.15997 0.41471,-0.16588 0.72279,-0.43248 z"
       id="path125" />
    <path
       d="m 321.11465,183.46333 0.3099,-0.17318 q 1.08463,2.0599 1.54948,3.64584 0.3737,1.23959 0.3737,2.4974 0,2.94402 -1.35808,5.25913 -1.67709,2.85287 -5.40496,5.55079 l -0.21875,-0.28255 q 1.6862,-1.25782 2.75261,-2.79819 1.33073,-1.93229 2.17839,-4.66667 0.84766,-2.7435 0.84766,-4.98569 0,-1.71354 -1.02995,-4.04688 z"
       id="path126" />
  </g>
  <!-- Second pendulum arm (thin rod) -->
  <line
     x1="215"
     y1="155"
     x2="330"
     y2="260"
     stroke="#888888"
     stroke-width="2"
     id="line5" />
  <!-- Mass 2 (point mass) -->
  <g
     id="text6"
     style="font-style:italic;font-size:18.6667px;font-family:serif"
     aria-label="m₂"
     transform="translate(-50,-50)">
    <path
       d="m 395.39408,290.93595 -1.1849,4.11068 q 0.79297,-1.44922 1.34896,-2.17839 0.86589,-1.13021 1.6862,-1.64062 0.48308,-0.29167 1.01173,-0.29167 0.45573,0 0.75651,0.29167 0.30078,0.29166 0.30078,0.74739 0,0.44662 -0.20964,1.16667 l -0.64713,2.31511 q 1.48568,-2.77995 2.81641,-3.90105 0.73828,-0.61979 1.45833,-0.61979 0.41928,0 0.6836,0.29167 0.27344,0.28255 0.27344,0.88411 0,0.52865 -0.16407,1.1211 l -1.0026,3.54558 q -0.32813,1.15755 -0.32813,1.28516 0,0.1276 0.082,0.21875 0.0547,0.0638 0.14584,0.0638 0.0911,0 0.31901,-0.17318 0.51953,-0.40104 0.97526,-1.05729 l 0.30078,0.1914 q -0.22786,0.36459 -0.8112,1.00261 -0.57422,0.63802 -0.98437,0.86589 -0.41016,0.22786 -0.75652,0.22786 -0.31901,0 -0.53776,-0.21875 -0.20963,-0.21875 -0.20963,-0.53776 0,-0.4375 0.3737,-1.75912 l 0.82942,-2.92578 q 0.28256,-1.01172 0.30079,-1.1211 0.0273,-0.17318 0.0273,-0.33724 0,-0.22786 -0.10026,-0.35547 -0.10938,-0.1276 -0.24609,-0.1276 -0.38282,0 -0.8112,0.39192 -1.25782,1.15756 -2.35157,3.2448 -0.72005,1.37631 -1.34896,3.52735 h -1.37631 l 1.5586,-5.51433 q 0.25521,-0.89323 0.25521,-1.19401 0,-0.2461 -0.10026,-0.36459 -0.10026,-0.11849 -0.2461,-0.11849 -0.30078,0 -0.63802,0.21875 -0.54687,0.35547 -1.41276,1.52214 -0.85677,1.16667 -1.33073,2.23308 -0.22787,0.5013 -1.08464,3.21745 h -1.34896 l 1.6862,-5.90626 0.21875,-0.76563 q 0.0638,-0.17317 0.0638,-0.2552 0,-0.20053 -0.18229,-0.35547 -0.18229,-0.16407 -0.46484,-0.16407 -0.11849,0 -0.65625,0.10938 l -0.082,-0.33724 z"
       id="path136" />
    <path
       style="font-size:65%;baseline-shift:sub"
       d="m 410.17158,298.55165 q 0,0.47396 -0.17773,0.85905 -0.17774,0.37917 -0.45619,0.64577 -0.28437,0.27253 -0.62799,0.47989 -0.34362,0.20735 -0.75834,0.39101 -0.42064,0.18366 -1.02494,0.50951 -0.60429,0.31992 -1.02493,0.64577 h 3.69688 l -0.18958,0.8235 h -4.46115 l 0.15404,-0.65762 q 0.38509,-0.47395 0.99532,-0.8472 0.61022,-0.37916 1.15527,-0.70501 0.25475,-0.15404 0.59245,-0.40879 0.34362,-0.25475 0.52728,-0.47989 0.23105,-0.27845 0.36139,-0.5806 0.13034,-0.30214 0.13034,-0.73463 0,-0.41472 -0.2429,-0.64577 -0.24291,-0.23106 -0.64577,-0.23106 -0.30215,0 -0.56875,0.11257 -0.26068,0.10664 -0.40287,0.27845 0,0.0533 0.006,0.15404 0.0118,0.0948 0.0118,0.22513 0,0.39694 -0.17774,0.59837 -0.17773,0.20143 -0.59245,0.20143 -0.23105,0 -0.33177,-0.13034 -0.10072,-0.13626 -0.10072,-0.31399 0,-0.24883 0.17181,-0.50951 0.17774,-0.2666 0.49174,-0.50358 0.30215,-0.23106 0.73463,-0.37917 0.43842,-0.14811 0.94792,-0.14811 0.79981,0 1.30339,0.36139 0.50358,0.35547 0.50358,0.98939 z"
       id="path137" />
  </g>
  <g
     id="text7"
     style="font-style:italic;font-size:18.6667px;font-family:serif"
     aria-label="(x₂, y₂)"
     transform="translate(-50,-50)">
    <path
       d="m 391.58746,333.00313 -0.3099,0.14583 q -1.08463,-2.06901 -1.55859,-3.65495 -0.36459,-1.23959 -0.36459,-2.4974 0,-2.9349 1.35808,-5.25913 1.66797,-2.84375 5.40496,-5.54167 l 0.21875,0.31901 q -1.6862,1.2487 -2.75261,2.79818 -1.33073,1.9323 -2.17839,4.66668 -0.84766,2.73438 -0.84766,4.97657 0,1.71354 1.02995,4.04688 z m 5.94272,-12.09507 q 0.44661,0.47396 0.67448,0.94791 0.16406,0.32813 0.53776,1.72266 l 0.80209,-1.20312 q 0.31901,-0.4375 0.77474,-0.82943 0.45573,-0.40104 0.80208,-0.54688 0.21875,-0.0911 0.48307,-0.0911 0.39193,0 0.6198,0.20963 0.23698,0.20964 0.23698,0.51042 0,0.34635 -0.13672,0.47396 -0.25521,0.22786 -0.58334,0.22786 -0.1914,0 -0.41015,-0.082 -0.42839,-0.14583 -0.57422,-0.14583 -0.21875,0 -0.51954,0.25521 -0.5651,0.47396 -1.34896,1.83203 l 0.7474,3.13542 q 0.17318,0.72006 0.29167,0.86589 0.11849,0.13672 0.23698,0.13672 0.1914,0 0.44661,-0.20964 0.50131,-0.41927 0.85678,-1.09375 l 0.31901,0.16407 q -0.57422,1.07552 -1.45834,1.78646 -0.5013,0.40104 -0.84766,0.40104 -0.51041,0 -0.8112,-0.57422 -0.1914,-0.35547 -0.79297,-3.06251 -1.42187,2.47006 -2.27865,3.181 -0.55599,0.45573 -1.07552,0.45573 -0.36458,0 -0.66537,-0.26432 -0.21875,-0.20053 -0.21875,-0.53777 0,-0.30078 0.20053,-0.5013 0.20052,-0.20052 0.49218,-0.20052 0.29167,0 0.6198,0.29167 0.23698,0.20963 0.36458,0.20963 0.10938,0 0.28255,-0.14583 0.42839,-0.34636 1.16667,-1.49479 0.73828,-1.14844 0.96615,-1.65886 -0.56511,-2.21485 -0.61068,-2.34245 -0.20963,-0.59245 -0.54687,-0.83855 -0.33724,-0.24609 -0.9935,-0.24609 -0.20963,0 -0.48307,0.0182 v -0.32813 z"
       id="path140" />
    <path
       style="font-size:65%;baseline-shift:sub"
       d="m 407.92356,328.52376 q 0,0.47396 -0.17774,0.85905 -0.17773,0.37917 -0.45618,0.64577 -0.28438,0.27253 -0.628,0.47988 -0.34362,0.20736 -0.75833,0.39102 -0.42064,0.18366 -1.02494,0.50951 -0.6043,0.31992 -1.02494,0.64577 h 3.69688 l -0.18958,0.8235 h -4.46114 l 0.15404,-0.65762 q 0.38509,-0.47396 0.99531,-0.8472 0.61022,-0.37917 1.15528,-0.70501 0.25475,-0.15404 0.59245,-0.40879 0.34362,-0.25476 0.52727,-0.47989 0.23106,-0.27845 0.3614,-0.5806 0.13034,-0.30215 0.13034,-0.73464 0,-0.41471 -0.24291,-0.64576 -0.2429,-0.23106 -0.64577,-0.23106 -0.30215,0 -0.56875,0.11257 -0.26067,0.10664 -0.40286,0.27845 0,0.0533 0.006,0.15403 0.0118,0.0948 0.0118,0.22513 0,0.39694 -0.17773,0.59838 -0.17774,0.20143 -0.59245,0.20143 -0.23106,0 -0.33177,-0.13034 -0.10072,-0.13626 -0.10072,-0.314 0,-0.24883 0.17181,-0.5095 0.17773,-0.2666 0.49173,-0.50358 0.30215,-0.23106 0.73464,-0.37917 0.43841,-0.14811 0.94792,-0.14811 0.7998,0 1.30339,0.36139 0.50358,0.35547 0.50358,0.98939 z"
       id="path141" />
    <path
       d="m 408.45494,331.20755 q 0.68359,-0.30989 1.11198,-0.78385 0.32813,-0.36459 0.32813,-0.70183 0,-0.16406 -0.0547,-0.30078 -0.0365,-0.0729 -0.25521,-0.29167 -0.21875,-0.21875 -0.2461,-0.30078 -0.0638,-0.15494 -0.0638,-0.35547 0,-0.39192 0.26433,-0.67448 0.27343,-0.28255 0.63802,-0.28255 0.3737,0 0.65625,0.30078 0.29167,0.30078 0.29167,0.75651 0,0.8112 -0.63803,1.64063 -0.63802,0.82943 -1.85026,1.28516 z m 12.50523,-10.29949 q 0.30989,0.52864 0.42838,0.99349 0.11849,0.45573 0.23698,1.80469 l 0.40105,4.48438 q 0.54687,-0.65625 1.58594,-2.07813 0.5013,-0.69271 1.23958,-1.88672 0.44662,-0.72917 0.54688,-1.02083 0.0547,-0.14584 0.0547,-0.30079 0,-0.10026 -0.0638,-0.16406 -0.0638,-0.0638 -0.33724,-0.14583 -0.26432,-0.0912 -0.44661,-0.31901 -0.17318,-0.23698 -0.17318,-0.53777 0,-0.37369 0.21875,-0.60156 0.21875,-0.22786 0.54688,-0.22786 0.40104,0 0.68359,0.33724 0.28255,0.32812 0.28255,0.91146 0,0.72005 -0.49218,1.64974 -0.49219,0.92057 -1.89584,2.83464 -1.40365,1.91407 -3.39975,4.17449 -1.3763,1.55859 -2.04167,1.95963 -0.66536,0.41016 -1.13932,0.41016 -0.28255,0 -0.49219,-0.21875 -0.21875,-0.20963 -0.21875,-0.49219 0,-0.35547 0.30078,-0.64713 0.29167,-0.29167 0.63802,-0.29167 0.1823,0 0.30079,0.082 0.0729,0.0456 0.16406,0.25521 0.082,0.21875 0.15495,0.29167 0.0456,0.0456 0.10937,0.0456 0.0547,0 0.19141,-0.0911 0.5013,-0.30989 1.16667,-0.98437 0.875,-0.89323 1.29427,-1.45834 l -0.51042,-5.77866 q -0.1276,-1.43099 -0.38281,-1.74088 -0.25521,-0.3099 -0.85677,-0.3099 -0.19141,0 -0.6836,0.0547 l -0.082,-0.33724 z"
       id="path142" />
    <path
       style="font-size:65%;baseline-shift:sub"
       d="m 431.60876,328.52376 q 0,0.47396 -0.17774,0.85905 -0.17773,0.37917 -0.45618,0.64577 -0.28438,0.27253 -0.628,0.47988 -0.34362,0.20736 -0.75834,0.39102 -0.42063,0.18366 -1.02493,0.50951 -0.6043,0.31992 -1.02494,0.64577 h 3.69688 l -0.18958,0.8235 h -4.46114 l 0.15404,-0.65762 q 0.38509,-0.47396 0.99531,-0.8472 0.61022,-0.37917 1.15527,-0.70501 0.25476,-0.15404 0.59245,-0.40879 0.34362,-0.25476 0.52728,-0.47989 0.23106,-0.27845 0.3614,-0.5806 0.13034,-0.30215 0.13034,-0.73464 0,-0.41471 -0.24291,-0.64576 -0.2429,-0.23106 -0.64577,-0.23106 -0.30215,0 -0.56875,0.11257 -0.26068,0.10664 -0.40286,0.27845 0,0.0533 0.006,0.15403 0.0119,0.0948 0.0119,0.22513 0,0.39694 -0.17773,0.59838 -0.17774,0.20143 -0.59245,0.20143 -0.23106,0 -0.33178,-0.13034 -0.10071,-0.13626 -0.10071,-0.314 0,-0.24883 0.17181,-0.5095 0.17773,-0.2666 0.49173,-0.50358 0.30215,-0.23106 0.73464,-0.37917 0.43841,-0.14811 0.94792,-0.14811 0.7998,0 1.30338,0.36139 0.50359,0.35547 0.50359,0.98939 z"
       id="path143" />
    <path
       d="m 435.04769,316.36899 0.3099,-0.17318 q 1.08464,2.0599 1.54948,3.64584 0.3737,1.23958 0.3737,2.4974 0,2.94401 -1.35807,5.25912 -1.67709,2.85287 -5.40496,5.55079 l -0.21875,-0.28255 q 1.6862,-1.25781 2.75261,-2.79818 1.33073,-1.9323 2.17839,-4.66668 0.84765,-2.74349 0.84765,-4.98568 0,-1.71355 -1.02995,-4.04688 z"
       id="path144" />
  </g>
  <!-- Vertical reference line (dashed) -->
  <line
     x1="150"
     y1="10"
     x2="150"
     y2="86.606735"
     stroke="#808080"
     stroke-width="1"
     stroke-dasharray="4, 4"
     id="line7" />
  <!-- Angle theta1 arc - from vertical toward arm -->
  <path
     d="m 150,60 a 50,50 0 0 0 20,-4"
     fill="none"
     stroke="#000000"
     stroke-width="1.5"
     id="path7" />
  <g
     id="text8"
     style="font-style:italic;font-size:18.6667px;font-family:serif"
     aria-label="θ₁"
     transform="translate(-50,-50)">
    <path
       d="m 212.46558,111.05248 q 2.53386,0 2.53386,3.47266 0,2.09636 -1.02995,4.64845 -1.02083,2.54297 -2.34245,3.80079 -1.3125,1.25781 -2.70704,1.25781 -1.13932,0 -1.85937,-0.96614 -0.71094,-0.97527 -0.71094,-2.42449 0,-0.92969 0.41015,-2.57031 0.41016,-1.64063 1.23048,-3.3086 0.82031,-1.67709 2.05078,-2.78907 1.23959,-1.1211 2.42448,-1.1211 z m 0.56511,6.19793 q 0.61068,-1.92318 0.61068,-3.73699 0,-2.07812 -1.17579,-2.07812 -1.02995,0 -2.02344,1.55859 -0.99349,1.54948 -1.82292,4.25652 z m -4.58464,0.51953 q -0.83855,2.61589 -0.83855,4.01043 0,0.91146 0.3737,1.49479 0.3737,0.57422 1.11198,0.57422 0.61068,0 1.14844,-0.48307 0.53776,-0.49219 1.25782,-1.98699 0.72005,-1.49479 1.35807,-3.60938 z"
       id="path134" />
    <path
       style="font-size:65%;baseline-shift:sub"
       d="m 218.89912,122.07705 q -0.0948,0.33769 -0.20143,0.73463 -0.10071,0.39102 -0.16588,0.66947 l -0.77019,3.34141 q -0.006,0.0237 -0.0118,0.0533 0,0.0296 0,0.0533 0,0.10664 0.0356,0.17774 0.0356,0.0652 0.13626,0.11849 0.10072,0.0474 0.3614,0.0829 0.26067,0.0356 0.44433,0.0356 l -0.0948,0.39101 h -3.22884 l 0.0948,-0.39101 q 0.17773,-0.006 0.47396,-0.0237 0.29622,-0.0237 0.42063,-0.0652 0.13627,-0.0474 0.22514,-0.13034 0.0948,-0.0889 0.13033,-0.25475 l 0.8709,-3.76798 h -1.16712 l 0.10072,-0.43248 h 0.30807 q 0.47396,0 0.88275,-0.15997 0.41471,-0.16588 0.72279,-0.43248 z"
       id="path135" />
  </g>
  <!-- Length l1 indicator -->
  <g
     id="text9"
     style="font-style:italic;font-size:18.6667px;font-family:serif"
     aria-label="l₁"
     transform="translate(-50,-50)">
    <path
       d="m 244.47605,127.85029 -3.11719,10.84637 q -0.22786,0.8112 -0.22786,0.99349 0,0.13672 0.082,0.22787 0.0911,0.0911 0.21875,0.0911 0.17317,0 0.3737,-0.15494 0.47396,-0.3737 0.99349,-1.15756 l 0.27344,0.28255 q -0.86589,1.22136 -1.59506,1.70443 -0.53776,0.34636 -1.02083,0.34636 -0.34636,0 -0.58334,-0.23698 -0.22786,-0.23698 -0.22786,-0.54688 0,-0.32812 0.29166,-1.34896 l 2.47006,-8.54949 q 0.30078,-1.04818 0.30078,-1.20313 0,-0.21875 -0.17318,-0.35547 -0.17317,-0.14583 -0.53776,-0.14583 -0.20963,0 -0.63802,0.0638 v -0.33724 z"
       id="path132" />
    <path
       style="font-size:65%;baseline-shift:sub"
       d="m 248.31193,138.87485 q -0.0948,0.3377 -0.20143,0.73464 -0.10072,0.39102 -0.16589,0.66947 l -0.77018,3.34141 q -0.006,0.0237 -0.0119,0.0533 0,0.0296 0,0.0533 0,0.10664 0.0356,0.17773 0.0356,0.0652 0.13626,0.11849 0.10072,0.0474 0.3614,0.0829 0.26067,0.0355 0.44433,0.0355 l -0.0948,0.39102 h -3.22885 l 0.0948,-0.39102 q 0.17773,-0.006 0.47396,-0.0237 0.29622,-0.0237 0.42063,-0.0652 0.13627,-0.0474 0.22513,-0.13034 0.0948,-0.0889 0.13034,-0.25476 l 0.8709,-3.76797 h -1.16712 l 0.10072,-0.43249 h 0.30807 q 0.47396,0 0.88275,-0.15996 0.41471,-0.16589 0.72279,-0.43249 z"
       id="path133" />
  </g>
  <!-- Vertical reference line from joint (dashed) -->
  <!-- Angle theta2 arc - from vertical toward arm -->
  <g
     id="text10"
     style="font-style:italic;font-size:18.6667px;font-family:serif"
     aria-label="θ₂"
     transform="translate(-50,-50)">
    <path
       d="m 284.32809,237.06713 q 2.53386,0 2.53386,3.47266 0,2.09636 -1.02995,4.64845 -1.02084,2.54297 -2.34246,3.80079 -1.3125,1.25781 -2.70703,1.25781 -1.13933,0 -1.85938,-0.96615 -0.71094,-0.97526 -0.71094,-2.42448 0,-0.92969 0.41016,-2.57032 0.41015,-1.64062 1.23047,-3.3086 0.82031,-1.67708 2.05078,-2.78906 1.23959,-1.1211 2.42449,-1.1211 z m 0.5651,6.19793 q 0.61068,-1.92318 0.61068,-3.73699 0,-2.07813 -1.17578,-2.07813 -1.02995,0 -2.02344,1.5586 -0.9935,1.54948 -1.82292,4.25652 z m -4.58464,0.51953 q -0.83855,2.61589 -0.83855,4.01042 0,0.91146 0.3737,1.4948 0.3737,0.57422 1.11198,0.57422 0.61068,0 1.14844,-0.48308 0.53777,-0.49218 1.25782,-1.98698 0.72005,-1.49479 1.35807,-3.60938 z"
       id="path120" />
    <path
       style="font-size:65%;baseline-shift:sub"
       d="m 291.90505,249.39508 q 0,0.47396 -0.17773,0.85905 -0.17774,0.37917 -0.45619,0.64577 -0.28437,0.27253 -0.62799,0.47989 -0.34362,0.20735 -0.75834,0.39101 -0.42064,0.18366 -1.02493,0.50951 -0.6043,0.31992 -1.02494,0.64577 h 3.69688 l -0.18958,0.8235 h -4.46114 l 0.15403,-0.65762 q 0.38509,-0.47396 0.99532,-0.8472 0.61022,-0.37917 1.15527,-0.70501 0.25476,-0.15404 0.59245,-0.40879 0.34362,-0.25476 0.52728,-0.47989 0.23106,-0.27845 0.3614,-0.5806 0.13033,-0.30214 0.13033,-0.73463 0,-0.41472 -0.2429,-0.64577 -0.2429,-0.23106 -0.64577,-0.23106 -0.30215,0 -0.56875,0.11257 -0.26068,0.10664 -0.40287,0.27845 0,0.0533 0.006,0.15404 0.0118,0.0948 0.0118,0.22513 0,0.39694 -0.17774,0.59837 -0.17773,0.20143 -0.59245,0.20143 -0.23105,0 -0.33177,-0.13034 -0.10071,-0.13626 -0.10071,-0.31399 0,-0.24883 0.17181,-0.50951 0.17773,-0.2666 0.49173,-0.50358 0.30215,-0.23106 0.73464,-0.37917 0.43841,-0.14811 0.94791,-0.14811 0.79981,0 1.30339,0.36139 0.50358,0.35547 0.50358,0.98939 z"
       id="path121" />
  </g>
  <!-- Length l2 indicator -->
  <g
     id="text11"
     style="font-style:italic;font-size:18.6667px;font-family:serif"
     aria-label="l₂"
     transform="translate(-50,-50)">
    <path
       d="m 342.21925,247.48536 -3.11719,10.84637 q -0.22787,0.8112 -0.22787,0.99349 0,0.13672 0.082,0.22787 0.0912,0.0911 0.21875,0.0911 0.17318,0 0.3737,-0.15494 0.47396,-0.3737 0.99349,-1.15756 l 0.27344,0.28256 q -0.86589,1.22135 -1.59506,1.70443 -0.53776,0.34635 -1.02083,0.34635 -0.34635,0 -0.58333,-0.23698 -0.22787,-0.23698 -0.22787,-0.54688 0,-0.32812 0.29167,-1.34896 l 2.47005,-8.54949 q 0.30079,-1.04818 0.30079,-1.20313 0,-0.21875 -0.17318,-0.35547 -0.17318,-0.14583 -0.53776,-0.14583 -0.20964,0 -0.63802,0.0638 v -0.33724 z"
       id="path138" />
    <path
       style="font-size:65%;baseline-shift:sub"
       d="m 347.19855,259.81331 q 0,0.47396 -0.17773,0.85905 -0.17774,0.37917 -0.45619,0.64577 -0.28437,0.27253 -0.62799,0.47988 -0.34362,0.20736 -0.75834,0.39102 -0.42064,0.18366 -1.02493,0.50951 -0.6043,0.31992 -1.02494,0.64577 h 3.69688 l -0.18958,0.8235 h -4.46114 l 0.15403,-0.65762 q 0.3851,-0.47396 0.99532,-0.8472 0.61022,-0.37917 1.15527,-0.70501 0.25476,-0.15404 0.59245,-0.40879 0.34362,-0.25476 0.52728,-0.47989 0.23106,-0.27845 0.3614,-0.5806 0.13033,-0.30215 0.13033,-0.73463 0,-0.41472 -0.2429,-0.64577 -0.2429,-0.23106 -0.64577,-0.23106 -0.30215,0 -0.56875,0.11257 -0.26068,0.10664 -0.40287,0.27845 0,0.0533 0.006,0.15403 0.0118,0.0948 0.0118,0.22513 0,0.39695 -0.17774,0.59838 -0.17773,0.20143 -0.59245,0.20143 -0.23105,0 -0.33177,-0.13034 -0.10071,-0.13626 -0.10071,-0.314 0,-0.24882 0.17181,-0.5095 0.17773,-0.2666 0.49173,-0.50358 0.30215,-0.23106 0.73464,-0.37917 0.43841,-0.14811 0.94791,-0.14811 0.79981,0 1.30339,0.36139 0.50358,0.35547 0.50358,0.98939 z"
       id="path139" />
  </g>
  <!-- Gravity vector on m1 (aligned with mass) -->
  <defs
     id="defs11">
    <pattern
       inkscape:collect="always"
       xlink:href="#ceiling"
       id="pattern147"
       patternTransform="translate(-50,-50)" />
    <marker
       id="arrowhead1"
       markerWidth="10"
       markerHeight="10"
       refX="9"
       refY="3"
       orient="auto">
      <polygon
         points="10,3 0,6 0,0 "
         fill="#000000"
         id="polygon11" />
    </marker>
  </defs>
  <line
     x1="215"
     y1="163"
     x2="215"
     y2="208.79526"
     stroke="#000000"
     stroke-width="1.56349"
     marker-end="url(#arrowhead1)"
     id="line11" />
  <g
     id="text12"
     style="font-style:italic;font-size:18.6667px;font-family:serif"
     aria-label="m₁g"
     transform="translate(-50,-50)">
    <path
       d="m 230.62099,254.32807 -1.18489,4.11068 q 0.79297,-1.44922 1.34896,-2.17839 0.86588,-1.13021 1.6862,-1.64062 0.48307,-0.29167 1.01172,-0.29167 0.45573,0 0.75651,0.29167 0.30078,0.29166 0.30078,0.74739 0,0.44662 -0.20963,1.16667 l -0.64714,2.31511 q 1.48568,-2.77995 2.81641,-3.90105 0.73828,-0.61979 1.45834,-0.61979 0.41927,0 0.68359,0.29167 0.27344,0.28255 0.27344,0.88411 0,0.52865 -0.16406,1.1211 l -1.00261,3.54558 q -0.32812,1.15755 -0.32812,1.28516 0,0.1276 0.082,0.21875 0.0547,0.0638 0.14583,0.0638 0.0911,0 0.31901,-0.17318 0.51953,-0.40104 0.97526,-1.05729 l 0.30079,0.1914 q -0.22787,0.36459 -0.8112,1.00261 -0.57422,0.63802 -0.98438,0.86589 -0.41016,0.22786 -0.75651,0.22786 -0.31901,0 -0.53776,-0.21875 -0.20964,-0.21875 -0.20964,-0.53776 0,-0.4375 0.3737,-1.75912 l 0.82943,-2.92578 q 0.28255,-1.01172 0.30078,-1.1211 0.0273,-0.17318 0.0273,-0.33724 0,-0.22786 -0.10026,-0.35547 -0.10937,-0.1276 -0.24609,-0.1276 -0.38281,0 -0.8112,0.39192 -1.25782,1.15756 -2.35157,3.2448 -0.72005,1.37631 -1.34896,3.52735 h -1.3763 l 1.55859,-5.51433 q 0.25521,-0.89323 0.25521,-1.19401 0,-0.2461 -0.10026,-0.36459 -0.10026,-0.11849 -0.24609,-0.11849 -0.30078,0 -0.63802,0.21875 -0.54688,0.35547 -1.41277,1.52214 -0.85677,1.16667 -1.33073,2.23308 -0.22786,0.5013 -1.08464,3.21745 h -1.34896 l 1.6862,-5.90626 0.21875,-0.76562 q 0.0638,-0.17318 0.0638,-0.25521 0,-0.20052 -0.1823,-0.35547 -0.18229,-0.16407 -0.46484,-0.16407 -0.11849,0 -0.65625,0.10938 l -0.082,-0.33724 z"
       id="path127" />
    <path
       style="font-size:65%;baseline-shift:sub"
       d="m 244.25507,260.64039 q -0.0948,0.33769 -0.20143,0.73463 -0.10072,0.39102 -0.16589,0.66947 l -0.77018,3.34141 q -0.006,0.0237 -0.0119,0.0533 0,0.0296 0,0.0533 0,0.10664 0.0355,0.17774 0.0356,0.0652 0.13627,0.11849 0.10071,0.0474 0.36139,0.0829 0.26068,0.0356 0.44434,0.0356 l -0.0948,0.39101 h -3.22885 l 0.0948,-0.39101 q 0.17774,-0.006 0.47396,-0.0237 0.29623,-0.0237 0.42064,-0.0652 0.13626,-0.0474 0.22513,-0.13034 0.0948,-0.0889 0.13034,-0.25475 l 0.8709,-3.76798 h -1.16713 l 0.10072,-0.43249 h 0.30807 q 0.47396,0 0.88275,-0.15996 0.41472,-0.16588 0.72279,-0.43248 z"
       id="path128" />
    <path
       d="m 255.84656,254.89317 -0.26432,0.94792 h -1.52214 q 0.17318,0.49219 0.17318,0.92058 0,1.20312 -1.02084,2.14193 -1.02995,0.9388 -2.82552,1.03906 -0.96615,0.29167 -1.44923,0.69271 -0.18229,0.14584 -0.18229,0.30078 0,0.1823 0.16406,0.33724 0.16407,0.14584 0.82943,0.30079 l 1.76824,0.41015 q 1.46745,0.34636 1.94141,0.82032 0.46484,0.48307 0.46484,1.11198 0,0.7474 -0.55599,1.36719 -0.54688,0.61979 -1.61328,0.96615 -1.0573,0.35547 -2.34246,0.35547 -1.13021,0 -2.0599,-0.27344 -0.92969,-0.26433 -1.33073,-0.72006 -0.40104,-0.45573 -0.40104,-0.9388 0,-0.39193 0.26432,-0.82031 0.25521,-0.41928 0.64714,-0.69271 0.24609,-0.17318 1.39453,-0.82032 -0.41927,-0.32812 -0.41927,-0.72005 0,-0.36458 0.36459,-0.77474 0.37369,-0.41016 1.56771,-0.90235 -1.00261,-0.1914 -1.59506,-0.83854 -0.58333,-0.64714 -0.58333,-1.44011 0,-1.29427 1.13021,-2.31511 1.13932,-1.02083 3.02605,-1.02083 0.68359,0 1.12109,0.13672 0.4375,0.13672 0.84766,0.42838 z m -3.16277,1.431 q 0,-0.72917 -0.41015,-1.14844 -0.40104,-0.41927 -1.0573,-0.41927 -1.02995,0 -1.70443,1.03906 -0.66536,1.02995 -0.66536,2.15105 0,0.70182 0.42838,1.14844 0.42839,0.44661 1.03907,0.44661 0.48307,0 0.92969,-0.26432 0.45573,-0.26433 0.76562,-0.72917 0.3099,-0.46485 0.49219,-1.1849 0.18229,-0.72005 0.18229,-1.03906 z m -4.36589,6.25261 q -0.73828,0.33724 -1.12109,0.86589 -0.3737,0.52865 -0.3737,1.03906 0,0.60157 0.54687,0.99349 0.78386,0.56511 2.29688,0.56511 1.30339,0 2.22396,-0.44662 0.92969,-0.4375 0.92969,-1.13932 0,-0.35547 -0.34635,-0.67448 -0.33724,-0.31901 -1.32162,-0.51953 -0.53776,-0.10938 -2.83464,-0.6836 z"
       id="path129" />
  </g>
  <!-- Gravity vector on m2 -->
  <line
     x1="330"
     y1="259.90808"
     x2="330"
     y2="317.69611"
     stroke="#000000"
     stroke-width="1.71179"
     marker-end="url(#arrowhead1)"
     id="line12" />
  <g
     id="text13"
     style="font-style:italic;font-size:18.6667px;font-family:serif"
     aria-label="m₂g"
     transform="translate(-50,-50)">
    <path
       d="m 343.77332,362.82972 -1.1849,4.11068 q 0.79297,-1.44922 1.34897,-2.17839 0.86588,-1.13021 1.6862,-1.64063 0.48307,-0.29166 1.01172,-0.29166 0.45573,0 0.75651,0.29166 0.30078,0.29167 0.30078,0.7474 0,0.44662 -0.20964,1.16667 l -0.64713,2.31511 q 1.48568,-2.77995 2.81641,-3.90105 0.73828,-0.61979 1.45834,-0.61979 0.41927,0 0.68359,0.29166 0.27344,0.28256 0.27344,0.88412 0,0.52865 -0.16406,1.1211 l -1.00261,3.54558 q -0.32813,1.15755 -0.32813,1.28515 0,0.12761 0.082,0.21875 0.0547,0.0638 0.14583,0.0638 0.0912,0 0.31901,-0.17318 0.51953,-0.40104 0.97526,-1.05729 l 0.30078,0.1914 q -0.22786,0.36459 -0.8112,1.00261 -0.57422,0.63802 -0.98437,0.86589 -0.41016,0.22786 -0.75651,0.22786 -0.31901,0 -0.53777,-0.21875 -0.20963,-0.21875 -0.20963,-0.53776 0,-0.4375 0.3737,-1.75912 l 0.82943,-2.92579 q 0.28255,-1.01172 0.30078,-1.12109 0.0273,-0.17318 0.0273,-0.33724 0,-0.22787 -0.10026,-0.35547 -0.10937,-0.12761 -0.24609,-0.12761 -0.38282,0 -0.8112,0.39193 -1.25782,1.15756 -2.35157,3.2448 -0.72005,1.3763 -1.34896,3.52735 h -1.3763 l 1.55859,-5.51433 q 0.25521,-0.89323 0.25521,-1.19402 0,-0.24609 -0.10026,-0.36458 -0.10026,-0.11849 -0.24609,-0.11849 -0.30079,0 -0.63803,0.21875 -0.54687,0.35547 -1.41276,1.52214 -0.85677,1.16667 -1.33073,2.23308 -0.22787,0.5013 -1.08464,3.21745 h -1.34896 l 1.6862,-5.90626 0.21875,-0.76563 q 0.0638,-0.17317 0.0638,-0.25521 0,-0.20052 -0.18229,-0.35547 -0.18229,-0.16406 -0.46484,-0.16406 -0.11849,0 -0.65625,0.10938 l -0.082,-0.33724 z"
       id="path145" />
    <path
       style="font-size:65%;baseline-shift:sub"
       d="m 358.55082,370.44542 q 0,0.47396 -0.17773,0.85905 -0.17774,0.37917 -0.45619,0.64577 -0.28437,0.27253 -0.62799,0.47989 -0.34362,0.20735 -0.75834,0.39101 -0.42064,0.18366 -1.02493,0.50951 -0.6043,0.31992 -1.02494,0.64577 h 3.69688 l -0.18958,0.8235 h -4.46114 l 0.15403,-0.65762 q 0.38509,-0.47396 0.99532,-0.8472 0.61022,-0.37917 1.15527,-0.70501 0.25476,-0.15404 0.59245,-0.40879 0.34362,-0.25476 0.52728,-0.47989 0.23106,-0.27845 0.3614,-0.5806 0.13033,-0.30215 0.13033,-0.73463 0,-0.41472 -0.2429,-0.64577 -0.2429,-0.23106 -0.64577,-0.23106 -0.30215,0 -0.56875,0.11257 -0.26068,0.10664 -0.40287,0.27845 0,0.0533 0.006,0.15403 0.0119,0.0948 0.0119,0.22514 0,0.39694 -0.17774,0.59837 -0.17773,0.20143 -0.59245,0.20143 -0.23105,0 -0.33177,-0.13034 -0.10071,-0.13626 -0.10071,-0.314 0,-0.24882 0.17181,-0.5095 0.17773,-0.2666 0.49173,-0.50358 0.30215,-0.23106 0.73464,-0.37917 0.43841,-0.14811 0.94791,-0.14811 0.79981,0 1.30339,0.36139 0.50358,0.35547 0.50358,0.98939 z"
       id="path146" />
    <path
       d="m 368.99889,363.39482 -0.26432,0.94792 h -1.52214 q 0.17317,0.49219 0.17317,0.92058 0,1.20312 -1.02083,2.14193 -1.02995,0.9388 -2.82553,1.03906 -0.96614,0.29167 -1.44922,0.69271 -0.18229,0.14583 -0.18229,0.30078 0,0.18229 0.16406,0.33724 0.16407,0.14584 0.82943,0.30078 l 1.76823,0.41016 q 1.46745,0.34636 1.94141,0.82032 0.46485,0.48307 0.46485,1.11198 0,0.74739 -0.55599,1.36719 -0.54688,0.61979 -1.61329,0.96614 -1.05729,0.35547 -2.34245,0.35547 -1.13021,0 -2.0599,-0.27343 -0.92969,-0.26433 -1.33073,-0.72006 -0.40104,-0.45573 -0.40104,-0.9388 0,-0.39193 0.26432,-0.82032 0.25521,-0.41927 0.64714,-0.69271 0.24609,-0.17317 1.39453,-0.82031 -0.41927,-0.32813 -0.41927,-0.72005 0,-0.36459 0.36458,-0.77474 0.3737,-0.41016 1.56772,-0.90235 -1.00261,-0.19141 -1.59506,-0.83854 -0.58333,-0.64714 -0.58333,-1.44011 0,-1.29427 1.13021,-2.31511 1.13932,-1.02083 3.02604,-1.02083 0.6836,0 1.1211,0.13672 0.4375,0.13672 0.84766,0.42838 z m -3.16277,1.43099 q 0,-0.72916 -0.41015,-1.14843 -0.40105,-0.41928 -1.0573,-0.41928 -1.02995,0 -1.70443,1.03907 -0.66536,1.02995 -0.66536,2.15104 0,0.70183 0.42838,1.14844 0.42839,0.44662 1.03907,0.44662 0.48307,0 0.92969,-0.26432 0.45573,-0.26433 0.76562,-0.72917 0.3099,-0.46485 0.49219,-1.1849 0.18229,-0.72005 0.18229,-1.03907 z m -4.36589,6.25262 q -0.73828,0.33724 -1.1211,0.86589 -0.37369,0.52864 -0.37369,1.03906 0,0.60157 0.54687,0.99349 0.78386,0.56511 2.29688,0.56511 1.30339,0 2.22396,-0.44662 0.92969,-0.4375 0.92969,-1.13932 0,-0.35547 -0.34635,-0.67448 -0.33724,-0.31901 -1.32162,-0.51953 -0.53776,-0.10938 -2.83464,-0.6836 z"
       id="path147" />
  </g>
  <!-- Point masses note -->
  <text
     xml:space="preserve"
     style="text-align:start;writing-mode:lr-tb;direction:ltr;text-anchor:start;fill:#000000"
     x="300.74054"
     y="207.29999"
     id="text20"><tspan
       sodipodi:role="line"
       id="tspan20"
       x="300.74054"
       y="207.29999"> </tspan></text>
  <circle
     cx="150"
     cy="10"
     r="4"
     fill="#000000"
     id="circle2" />
  <circle
     cx="330"
     cy="260"
     r="8"
     fill="#e74c3c"
     stroke="#000000"
     stroke-width="1.5"
     id="circle5" />
  <circle
     cx="215"
     cy="155"
     r="8"
     fill="#e74c3c"
     stroke="#000000"
     stroke-width="1.5"
     id="circle3" />
  <text
     xml:space="preserve"
     style="text-align:start;writing-mode:lr-tb;direction:ltr;text-anchor:start;fill:#000000"
     x="375.83658"
     y="179.64175"
     id="text27"><tspan
       sodipodi:role="line"
       id="tspan27"
       x="375.83658"
       y="179.64175"></tspan></text>
  <text
     xml:space="preserve"
     style="text-align:start;writing-mode:lr-tb;direction:ltr;text-anchor:start;fill:#000000"
     x="253.5708"
     y="59.17408"
     id="text30"><tspan
       sodipodi:role="line"
       id="tspan30"
       x="253.5708"
       y="59.17408"></tspan></text>
  <text
     xml:space="preserve"
     style="font-size:18.6667px;text-align:start;writing-mode:lr-tb;direction:ltr;text-anchor:start;fill:#000000"
     x="337.8096"
     y="99.104935"
     id="text63"><tspan
       sodipodi:role="line"
       id="tspan63"
       x="337.8096"
       y="99.104935"></tspan></text>
</svg>
